<?xml version="1.0" encoding="UTF-8" standalone="no"?>
<!DOCTYPE svg PUBLIC "-//W3C//DTD SVG 1.1//EN" "http://www.w3.org/Graphics/SVG/1.1/DTD/svg11.dtd">
<svg width="100%" height="100%" viewBox="0 0 262 43" version="1.1" xmlns="http://www.w3.org/2000/svg" xmlns:xlink="http://www.w3.org/1999/xlink" xml:space="preserve" xmlns:serif="http://www.serif.com/" style="fill-rule:evenodd;clip-rule:evenodd;stroke-linejoin:round;stroke-miterlimit:2;">
    <g transform="matrix(1,0,0,1,-128.835,-90.7199)">
        <g transform="matrix(1.03627,0,0,1.1194,0,-120.896)">
            <g id="Letter" transform="matrix(1,0,0,1,-6.85674e-14,5.36)">
                <g transform="matrix(2.12799,0,0,1.96995,130.765,184)">
                    <path d="M0,18.744L-3.026,0L-1.821,0L0.991,17.084L3.722,0.08L5.034,0.08L7.658,17.03L10.363,0L11.46,0L8.462,18.744L6.855,18.744L4.338,3.401L1.714,18.744L0,18.744Z" style="fill:rgb(30,64,119);fill-rule:nonzero;"/>
                </g>
                <g transform="matrix(2.12799,0,0,1.96995,179.882,194.235)">
                    <path d="M0,8.327L-2.758,-3.803L-5.462,8.327L0,8.327ZM-6.587,13.549L-7.712,13.549L-3.615,-5.222L-1.821,-5.222L2.356,13.549L1.125,13.549L0.187,9.398L-5.65,9.398L-6.587,13.549Z" style="fill:rgb(30,64,119);fill-rule:nonzero;"/>
                </g>
                <g transform="matrix(2.12799,0,0,1.96995,207.774,187.823)">
                    <path d="M0,14.862C0.455,14.318 0.683,13.51 0.683,12.439L0.683,10.752C0.683,9.556 0.415,8.708 -0.121,8.208C-0.656,7.708 -1.495,7.458 -2.637,7.458L-4.967,7.458L-4.967,15.679L-2.182,15.679C-1.183,15.679 -0.455,15.407 0,14.862M-0.415,5.704C0.084,5.285 0.335,4.504 0.335,3.361L0.335,2.156C0.335,1.139 0.138,0.389 -0.254,-0.093C-0.647,-0.575 -1.326,-0.816 -2.29,-0.816L-4.967,-0.816L-4.967,6.334L-2.879,6.334C-1.736,6.334 -0.915,6.124 -0.415,5.704M0.683,-0.95C1.272,-0.289 1.566,0.71 1.566,2.049L1.566,3.12C1.566,4.191 1.383,5.026 1.017,5.624C0.651,6.222 0.013,6.619 -0.897,6.816C0.977,7.19 1.914,8.529 1.914,10.832L1.914,12.465C1.914,13.858 1.58,14.929 0.91,15.679C0.241,16.428 -0.79,16.803 -2.182,16.803L-6.199,16.803L-6.199,-1.941L-2.263,-1.941C-0.888,-1.941 0.094,-1.61 0.683,-0.95" style="fill:rgb(30,64,119);fill-rule:nonzero;"/>
                </g>
                <g transform="matrix(2.12799,0,0,1.96995,235.011,187.823)">
                    <path d="M0,14.862C0.455,14.318 0.683,13.51 0.683,12.439L0.683,10.752C0.683,9.556 0.415,8.708 -0.121,8.208C-0.656,7.708 -1.495,7.458 -2.638,7.458L-4.967,7.458L-4.967,15.679L-2.182,15.679C-1.183,15.679 -0.455,15.407 0,14.862M-0.415,5.704C0.085,5.285 0.335,4.504 0.335,3.361L0.335,2.156C0.335,1.139 0.138,0.389 -0.254,-0.093C-0.647,-0.575 -1.326,-0.816 -2.289,-0.816L-4.967,-0.816L-4.967,6.334L-2.879,6.334C-1.736,6.334 -0.915,6.124 -0.415,5.704M0.683,-0.95C1.272,-0.289 1.566,0.71 1.566,2.049L1.566,3.12C1.566,4.191 1.383,5.026 1.017,5.624C0.651,6.222 0.013,6.619 -0.897,6.816C0.977,7.19 1.914,8.529 1.914,10.832L1.914,12.465C1.914,13.858 1.58,14.929 0.91,15.679C0.241,16.428 -0.79,16.803 -2.182,16.803L-6.199,16.803L-6.199,-1.941L-2.263,-1.941C-0.888,-1.941 0.094,-1.61 0.683,-0.95" style="fill:rgb(30,64,119);fill-rule:nonzero;"/>
                </g>
                <g transform="matrix(2.12799,0,0,1.96995,264.897,194.235)">
                    <path d="M0,8.327L-2.758,-3.803L-5.463,8.327L0,8.327ZM-6.587,13.549L-7.712,13.549L-3.615,-5.222L-1.821,-5.222L2.356,13.549L1.125,13.549L0.187,9.398L-5.65,9.398L-6.587,13.549Z" style="fill:rgb(30,64,119);fill-rule:nonzero;"/>
                </g>
                <g transform="matrix(2.12799,0,0,1.96995,279.654,186.268)">
                    <path d="M0,16.468C0.357,16.468 0.616,16.459 0.777,16.441C1.687,16.37 2.356,16.071 2.785,15.544C3.213,15.018 3.427,14.192 3.427,13.067L3.427,-1.151L4.659,-1.151L4.659,12.987C4.659,14.558 4.338,15.705 3.695,16.428C3.053,17.151 2.124,17.539 0.91,17.593C0.785,17.61 0.58,17.619 0.295,17.619C0.027,17.619 -0.179,17.61 -0.321,17.593L-0.321,16.468L0,16.468Z" style="fill:rgb(30,64,119);fill-rule:nonzero;"/>
                </g>
                <g transform="matrix(2.12799,0,0,1.96995,315.552,194.235)">
                    <path d="M0,8.327L-2.758,-3.803L-5.463,8.327L0,8.327ZM-6.587,13.549L-7.712,13.549L-3.615,-5.222L-1.821,-5.222L2.356,13.549L1.125,13.549L0.187,9.398L-5.65,9.398L-6.587,13.549Z" style="fill:rgb(30,64,119);fill-rule:nonzero;"/>
                </g>
                <g transform="matrix(2.12799,0,0,1.96995,345.181,218.681)">
                    <path d="M0,-16.467C0.66,-15.601 0.991,-14.454 0.991,-13.026L0.991,-11.473L-0.187,-11.473L-0.187,-13.106C-0.187,-14.178 -0.415,-15.034 -0.87,-15.677C-1.325,-16.32 -2.044,-16.641 -3.026,-16.641C-4.008,-16.641 -4.726,-16.32 -5.181,-15.677C-5.637,-15.034 -5.864,-14.178 -5.864,-13.106L-5.864,-3.36C-5.864,-2.289 -5.637,-1.436 -5.181,-0.802C-4.726,-0.169 -4.008,0.148 -3.026,0.148C-2.044,0.148 -1.325,-0.169 -0.87,-0.802C-0.415,-1.436 -0.187,-2.289 -0.187,-3.36L-0.187,-5.582L0.991,-5.582L0.991,-3.44C0.991,-2.012 0.66,-0.865 0,0.001C-0.661,0.867 -1.678,1.299 -3.053,1.299C-4.427,1.299 -5.445,0.867 -6.105,0.001C-6.766,-0.865 -7.096,-2.012 -7.096,-3.44L-7.096,-13.026C-7.096,-14.454 -6.766,-15.601 -6.105,-16.467C-5.445,-17.333 -4.427,-17.766 -3.053,-17.766C-1.678,-17.766 -0.661,-17.333 0,-16.467" style="fill:rgb(30,64,119);fill-rule:nonzero;"/>
                </g>
                <g transform="matrix(2.12799,0,0,1.96995,359.882,197.347)">
                    <path d="M0,5.194L0,11.969L-1.232,11.969L-1.232,-6.775L0,-6.775L0,3.132L6.105,-6.775L7.39,-6.775L2.035,1.954L7.739,11.969L6.453,11.969L1.285,3.159L0,5.194Z" style="fill:rgb(30,64,119);fill-rule:nonzero;"/>
                </g>
            </g>
        </g>
    </g>
</svg>
