<svg xmlns="http://www.w3.org/2000/svg" role="img" width="1024" height="1024"
     preserveAspectRatio="xMidYMid meet" viewBox="0 0 16 16">
    <g fill="#FFF">
        <path
            d="M8.067 0c.263 0 .52.017.76.057a4.1 4.1 0 0 1 .697.154c.229.069.452.155.675.263c.217.103.44.229.662.366a7.2 7.2 0 0 0 1.126.589a7.534 7.534 0 0 0 2.332.525c.405.029.822.046 1.257.046v4c0 .76-.097 1.48-.292 2.166a8.996 8.996 0 0 1-.788 1.943a10.306 10.306 0 0 1-1.189 1.725a15.082 15.082 0 0 1-1.491 1.532a17.57 17.57 0 0 1-1.703 1.325c-.594.412-1.194.795-1.794 1.143l-.24.143l-.24-.143a27.088 27.088 0 0 1-1.806-1.143a15.579 15.579 0 0 1-1.703-1.325a15.08 15.08 0 0 1-1.491-1.532a10.948 10.948 0 0 1-1.195-1.725a9.753 9.753 0 0 1-.788-1.943A7.897 7.897 0 0 1 .57 6V2c.434 0 .851-.017 1.257-.046a8.16 8.16 0 0 0 1.189-.171c.383-.086.765-.2 1.143-.354a6.563 6.563 0 0 0 1.12-.583C5.719.56 6.164.349 6.604.21A4.79 4.79 0 0 1 8.067 0zm6.503 2.983a9.567 9.567 0 0 1-2.234-.377a7.96 7.96 0 0 1-2.046-.943a4.264 4.264 0 0 0-1.063-.503A3.885 3.885 0 0 0 8.073.994a3.99 3.99 0 0 0-1.166.166a3.946 3.946 0 0 0-1.057.503a7.927 7.927 0 0 1-2.051.948c-.709.206-1.452.332-2.229.378v3.017c0 .663.086 1.297.257 1.908a8.58 8.58 0 0 0 .72 1.743a9.604 9.604 0 0 0 1.08 1.572c.417.491.863.948 1.343 1.382c.48.435.983.835 1.509 1.206c.531.372 1.062.709 1.594 1.017a22.4 22.4 0 0 0 1.588-1.017a15.384 15.384 0 0 0 1.515-1.206c.48-.434.925-.891 1.343-1.382a9.609 9.609 0 0 0 1.08-1.572a8.269 8.269 0 0 0 .708-1.743a6.814 6.814 0 0 0 .263-1.908V2.983z"/>
        <path fill-rule="evenodd"
              d="M9.433 4.72c.171.171.314.377.411.606c.103.228.155.48.149.754a1.6 1.6 0 0 1-.114.64a2.24 2.24 0 0 1-.292.48a2.787 2.787 0 0 1-.354.383a4.52 4.52 0 0 0-.337.32a1.421 1.421 0 0 0-.24.32a.7.7 0 0 0-.086.348v.36l-.131.138h-.715l-.143-.143V8.57c0-.24.04-.45.12-.634c.075-.177.166-.343.28-.486a3.42 3.42 0 0 1 .366-.382c.12-.109.229-.212.332-.32c.097-.103.182-.212.245-.326a.707.707 0 0 0 .086-.354a.966.966 0 0 0-.074-.36a.972.972 0 0 0-.2-.298a.94.94 0 0 0-1.32 0a.88.88 0 0 0-.2.298a.829.829 0 0 0-.075.36L7 6.21h-.715l-.131-.137c0-.263.046-.514.148-.748c.103-.229.24-.435.412-.606c.177-.177.383-.32.611-.417a1.883 1.883 0 0 1 1.503 0c.229.103.434.24.606.417zM7.57 9.646l.143-.143h.714l.143.143v.714l-.143.143h-.714l-.143-.143v-.714z"
              clip-rule="evenodd"/>
    </g>
</svg>
