<?xml version="1.0" encoding="utf-8"?>
<!-- Generator: Adobe Illustrator 16.0.0, SVG Export Plug-In . SVG Version: 6.00 Build 0)  -->
<!DOCTYPE svg PUBLIC "-//W3C//DTD SVG 1.1//EN" "http://www.w3.org/Graphics/SVG/1.1/DTD/svg11.dtd">
<svg version="1.1" xmlns="http://www.w3.org/2000/svg" xmlns:xlink="http://www.w3.org/1999/xlink" x="0px" y="0px" width="500px"
	 height="500px" viewBox="0 0 500 500" enable-background="new 0 0 500 500" xml:space="preserve">
<g id="Layer_1">
	<g>
		<path fill="#1E4077" d="M174.707,127.607c0,3.82,1.55,7.284,4.054,9.787c0.757,0.757,1.604,1.425,2.52,1.991
			c-0.009-0.41-0.017-0.828-0.028-1.231c-0.635-0.44-1.229-0.933-1.774-1.478c-2.321-2.322-3.756-5.526-3.757-9.069
			c0.001-3.543,1.436-6.747,3.757-9.069c0.335-0.335,0.691-0.65,1.062-0.946c-0.028-0.164-0.059-0.382-0.071-0.66
			c-0.008-0.196-0.014-0.378-0.02-0.545c-0.601,0.434-1.166,0.911-1.688,1.433C176.257,120.323,174.707,123.787,174.707,127.607"/>
		<path fill="#1E4077" d="M202.388,127.607c0-3.82-1.55-7.284-4.054-9.787c-0.418-0.419-0.866-0.808-1.336-1.171
			c-0.129,0.217-0.284,0.427-0.473,0.622h0.001c-0.035,0.037-0.042,0.053-0.055,0.081c-0.009,0.027-0.018,0.065-0.018,0.129v0.001
			v0.001c0,0.008,0.001,0.021,0.002,0.03c0.406,0.319,0.796,0.66,1.161,1.025c2.321,2.322,3.756,5.526,3.757,9.069
			c-0.001,3.543-1.436,6.747-3.757,9.069c-0.19,0.19-0.389,0.372-0.59,0.55c0.005,0.055,0.01,0.111,0.016,0.164
			c0.037,0.312,0.074,0.668,0.108,1.054c0.413-0.328,0.81-0.677,1.183-1.05C200.838,134.891,202.388,131.427,202.388,127.607"/>
		<path fill="#1E4077" d="M206.101,110.054c-4.49-4.491-10.699-7.271-17.554-7.271c-6.853,0-13.062,2.78-17.553,7.271
			c-4.491,4.491-7.271,10.7-7.271,17.553c0,6.854,2.779,13.063,7.271,17.553c4.491,4.492,10.7,7.271,17.553,7.271
			c6.854,0,13.063-2.779,17.554-7.271c4.491-4.49,7.271-10.699,7.271-17.553C213.371,120.754,210.592,114.545,206.101,110.054
			 M205.383,144.443c-4.31,4.309-10.259,6.973-16.836,6.974c-6.575-0.001-12.524-2.665-16.836-6.974
			c-4.309-4.31-6.973-10.259-6.973-16.836c0-6.576,2.664-12.525,6.973-16.836c4.312-4.309,10.261-6.973,16.836-6.973
			c6.577,0,12.526,2.664,16.836,6.973c4.31,4.311,6.974,10.26,6.975,16.836C212.356,134.184,209.692,140.133,205.383,144.443"/>
		<path fill="#1E4077" d="M202.479,113.676c-1.594-1.594-3.462-2.916-5.524-3.891c0.058,0.209,0.098,0.43,0.109,0.662v0.001
			c0.006,0.137,0.01,0.276,0.01,0.416c0,0.036-0.002,0.072-0.002,0.108c1.738,0.894,3.319,2.051,4.69,3.421
			c3.382,3.384,5.473,8.052,5.473,13.214c0,5.162-2.091,9.831-5.473,13.214c-1.388,1.387-2.991,2.557-4.756,3.454
			c-0.028,0.112-0.058,0.223-0.091,0.33l-0.001,0.001c-0.101,0.316-0.229,0.618-0.42,0.894c-0.05,0.071-0.099,0.138-0.146,0.204
			c2.304-0.995,4.382-2.416,6.131-4.165c3.565-3.564,5.771-8.493,5.771-13.932S206.044,117.24,202.479,113.676"/>
		<path fill="#1E4077" d="M183.054,146.154c-0.045-0.123-0.089-0.21-0.131-0.28c-0.042-0.07-0.083-0.122-0.13-0.174
			c-0.048-0.053-0.104-0.106-0.178-0.17c-0.097-0.084-0.229-0.188-0.377-0.327v-0.001h-0.001c-2.621-0.941-4.973-2.45-6.904-4.381
			c-3.382-3.383-5.473-8.052-5.473-13.214c0-5.162,2.091-9.83,5.473-13.214c1.418-1.417,3.062-2.606,4.872-3.511
			c0.058-0.115,0.101-0.197,0.121-0.247c0.021-0.05,0.03-0.076,0.041-0.122c0.013-0.058,0.027-0.153,0.027-0.332
			c0-0.037-0.001-0.076-0.002-0.119v-0.011l-0.001-0.043v-0.011c0-0.117,0.011-0.23,0.026-0.341
			c-2.174,0.986-4.137,2.354-5.802,4.02c-3.565,3.564-5.771,8.492-5.771,13.931c0,5.439,2.206,10.368,5.771,13.932
			c2.342,2.343,5.273,4.099,8.553,5.027C183.133,146.397,183.093,146.262,183.054,146.154"/>
		<path fill="#1E4077" d="M196.528,124.853c-0.035-0.456-0.068-0.931-0.068-1.399c0-0.438,0.029-0.869,0.113-1.272
			c0.082-0.389,0.115-0.73,0.115-1.034c0-0.741-0.197-1.263-0.346-1.721c-0.041-0.125-0.103-0.265-0.171-0.417
			c-0.104-0.228-0.226-0.485-0.319-0.748c-0.094-0.264-0.16-0.533-0.16-0.781c0-0.137,0.021-0.268,0.065-0.39
			c0.045-0.123,0.114-0.239,0.22-0.348c0.246-0.255,0.42-0.528,0.531-0.804c0.111-0.277,0.161-0.556,0.161-0.823
			c0-0.381-0.1-0.738-0.262-1.035c-0.059-0.108-0.103-0.265-0.129-0.456c-0.026-0.191-0.037-0.416-0.037-0.66
			c0-0.641,0.069-1.413,0.069-2.101c0-0.13-0.002-0.257-0.008-0.38c-0.017-0.333-0.114-0.653-0.255-0.947
			c-0.212-0.441-0.521-0.827-0.812-1.124c-0.146-0.149-0.287-0.275-0.41-0.374c-0.062-0.05-0.12-0.093-0.171-0.129
			c-0.052-0.036-0.098-0.065-0.138-0.087c-0.033-0.017-0.07-0.045-0.111-0.082c-0.07-0.065-0.15-0.158-0.239-0.271
			c-0.135-0.168-0.288-0.379-0.476-0.599c-0.187-0.219-0.409-0.45-0.68-0.659c-0.114-0.088-0.256-0.161-0.419-0.227
			c-0.286-0.115-0.639-0.204-1.021-0.277c-1.146-0.216-2.556-0.275-3.102-0.275c-0.91,0-1.665,0.056-2.3,0.162
			c-0.952,0.158-1.637,0.43-2.156,0.797c-0.504,0.355-0.851,0.797-1.139,1.29c-0.062,0.019-0.124,0.046-0.19,0.08
			c-0.152,0.079-0.321,0.197-0.491,0.344c-0.255,0.22-0.512,0.506-0.709,0.83c-0.098,0.162-0.181,0.334-0.24,0.512
			c-0.059,0.178-0.094,0.362-0.094,0.549c0,0.014,0.001,0.029,0.001,0.043c0.001,0.05,0.002,0.096,0.002,0.141
			c0,0.217-0.017,0.372-0.045,0.499c-0.021,0.095-0.049,0.174-0.084,0.256c-0.052,0.121-0.122,0.246-0.204,0.415
			s-0.174,0.381-0.269,0.675c-0.104,0.321-0.146,0.646-0.146,0.957c0,0.394,0.068,0.767,0.165,1.083
			c0.048,0.158,0.104,0.303,0.164,0.429s0.122,0.235,0.186,0.323c0.068,0.094,0.119,0.206,0.159,0.34
			c0.06,0.199,0.09,0.445,0.106,0.736c0.018,0.291,0.025,0.626,0.042,1.003c0.013,0.288,0.045,0.489,0.073,0.641
			c0.014,0.075,0.026,0.138,0.036,0.192c0.009,0.054,0.013,0.098,0.013,0.14c0,0.064-0.01,0.125-0.045,0.217
			c-0.035,0.09-0.096,0.209-0.194,0.372c-0.069,0.116-0.118,0.207-0.148,0.291c-0.032,0.083-0.046,0.16-0.046,0.233
			c0,0.053,0.007,0.102,0.016,0.151c0.013,0.074,0.03,0.149,0.044,0.252c0.015,0.102,0.026,0.232,0.026,0.41
			c0,0.291-0.031,0.71-0.137,1.334c-0.097,0.577-0.135,1.079-0.135,1.54c0,0.721,0.092,1.339,0.188,1.984s0.195,1.318,0.219,2.16
			c0.03,1.126,0.109,2.28,0.184,3.32c0.074,1.038,0.143,0.848,0.149,1.508c0.008,0.677,0.092,1.514,0.19,2.399
			c0.1,0.884,0.212,1.815,0.28,2.676c0.068,0.858,0.087,1.952,0.104,2.956c0.008,0.503,0.017,0.983,0.029,1.401
			c0.015,0.419,0.033,0.774,0.064,1.033c0.06,0.494,0.086,0.999,0.158,1.444c0.036,0.222,0.083,0.43,0.154,0.616
			c0.072,0.186,0.168,0.351,0.306,0.48c0.123,0.114,0.243,0.21,0.355,0.308c0.169,0.147,0.323,0.297,0.461,0.525
			c0.139,0.228,0.263,0.538,0.356,1.005c0.036,0.178,0.107,0.346,0.21,0.502c0.179,0.275,0.447,0.517,0.782,0.739
			c0.503,0.332,1.159,0.62,1.915,0.884c0.755,0.265,1.607,0.506,2.5,0.74c0.447,0.118,0.862,0.17,1.247,0.17
			c0.499,0,0.943-0.089,1.333-0.234c0.584-0.217,1.041-0.561,1.378-0.92c0.338-0.36,0.556-0.734,0.664-1.027
			c0.074-0.202,0.169-0.357,0.285-0.503c0.175-0.218,0.404-0.412,0.682-0.676c0.275-0.264,0.596-0.597,0.942-1.095
			c0.132-0.188,0.235-0.421,0.319-0.688c0.127-0.402,0.21-0.883,0.263-1.409c0.053-0.527,0.073-1.099,0.073-1.68
			c0-1.389-0.122-2.829-0.237-3.809c-0.045-0.386-0.063-0.801-0.063-1.234c0-0.918,0.084-1.913,0.168-2.869
			c0.085-0.957,0.17-0.76,0.17-1.531c0-1.669,0.048-3.976,0.048-5.269c0-0.162-0.001-0.308-0.003-0.435
			C196.602,125.746,196.564,125.309,196.528,124.853 M196.307,122.125c-0.09,0.429-0.12,0.878-0.12,1.328
			c0,0.481,0.035,0.963,0.07,1.42c0.036,0.457,0.071,0.89,0.077,1.27c0.002,0.126,0.003,0.271,0.003,0.432
			c0,1.288-0.049,3.595-0.049,5.269c0,0.752-0.084,0.55-0.168,1.507c-0.085,0.957-0.17,1.958-0.17,2.893
			c0,0.44,0.02,0.866,0.066,1.266c0.114,0.971,0.235,2.404,0.235,3.777c0,0.766-0.037,1.513-0.135,2.149
			c-0.048,0.318-0.109,0.608-0.188,0.857c-0.079,0.25-0.174,0.459-0.283,0.615c-0.447,0.64-0.836,0.989-1.166,1.296
			c-0.164,0.153-0.315,0.296-0.447,0.46s-0.244,0.35-0.329,0.58c-0.062,0.167-0.172,0.379-0.331,0.6
			c-0.238,0.331-0.588,0.683-1.05,0.95c-0.462,0.267-1.037,0.452-1.737,0.452c-0.359,0-0.751-0.049-1.178-0.161
			c-1.354-0.355-2.611-0.726-3.553-1.161c-0.47-0.218-0.861-0.451-1.143-0.701c-0.143-0.125-0.257-0.253-0.343-0.385
			c-0.086-0.132-0.143-0.267-0.171-0.408c-0.065-0.326-0.146-0.587-0.241-0.802c-0.14-0.322-0.311-0.542-0.487-0.717
			c-0.177-0.175-0.357-0.307-0.525-0.465c-0.098-0.091-0.176-0.218-0.237-0.378c-0.093-0.239-0.146-0.549-0.185-0.893
			c-0.04-0.344-0.066-0.722-0.112-1.102c-0.029-0.242-0.049-0.594-0.062-1.009c-0.021-0.622-0.028-1.389-0.044-2.162
			c-0.017-0.774-0.039-1.554-0.091-2.208c-0.068-0.868-0.183-1.802-0.281-2.685c-0.098-0.882-0.181-1.713-0.189-2.371
			c-0.007-0.675-0.075-0.486-0.149-1.525c-0.074-1.038-0.153-2.189-0.184-3.308c-0.022-0.859-0.126-1.547-0.222-2.192
			c-0.095-0.645-0.184-1.247-0.184-1.944c0.001-0.446,0.037-0.932,0.131-1.494c0.106-0.636,0.14-1.069,0.14-1.38
			c0-0.253-0.021-0.425-0.045-0.552c-0.011-0.063-0.021-0.115-0.03-0.157c-0.007-0.043-0.011-0.075-0.011-0.104
			c0-0.04,0.006-0.077,0.028-0.137c0.021-0.059,0.062-0.138,0.128-0.247c0.102-0.169,0.17-0.299,0.215-0.414
			c0.044-0.114,0.064-0.217,0.063-0.315c0-0.063-0.007-0.123-0.017-0.184c-0.015-0.093-0.037-0.189-0.057-0.315
			c-0.021-0.126-0.039-0.281-0.048-0.486c-0.023-0.498-0.027-0.927-0.065-1.295c-0.02-0.185-0.048-0.354-0.094-0.51
			c-0.046-0.155-0.11-0.297-0.201-0.422c-0.05-0.07-0.106-0.165-0.159-0.279c-0.161-0.342-0.303-0.852-0.303-1.396
			c0-0.287,0.039-0.583,0.133-0.873c0.081-0.25,0.158-0.434,0.229-0.585c0.053-0.113,0.102-0.208,0.147-0.299
			c0.069-0.137,0.131-0.268,0.173-0.431c0.043-0.163,0.065-0.355,0.065-0.614c0-0.047-0.001-0.097-0.002-0.149
			c0-0.012-0.001-0.023-0.001-0.035c0-0.232,0.066-0.473,0.178-0.705c0.167-0.348,0.434-0.674,0.703-0.92
			c0.135-0.123,0.27-0.226,0.391-0.301c0.061-0.038,0.117-0.069,0.168-0.092c0.051-0.024,0.097-0.039,0.13-0.047l0.06-0.013
			l0.03-0.052c0.188-0.329,0.396-0.625,0.655-0.886c0.39-0.392,0.894-0.707,1.643-0.929c0.748-0.222,1.74-0.346,3.089-0.346
			c0.402,0,1.315,0.034,2.221,0.144c0.453,0.055,0.904,0.129,1.287,0.226c0.191,0.049,0.365,0.103,0.513,0.162
			c0.148,0.06,0.27,0.125,0.354,0.19c0.383,0.296,0.666,0.642,0.899,0.944c0.117,0.151,0.223,0.291,0.325,0.41
			c0.051,0.059,0.102,0.113,0.154,0.161c0.052,0.047,0.104,0.088,0.164,0.12c0.037,0.02,0.093,0.056,0.16,0.105
			c0.233,0.172,0.598,0.502,0.903,0.915c0.154,0.207,0.293,0.435,0.396,0.674c0.103,0.239,0.17,0.488,0.182,0.741
			c0.006,0.117,0.008,0.24,0.008,0.366c0.001,0.671-0.068,1.442-0.068,2.101c0,0.252,0.01,0.487,0.039,0.697
			c0.029,0.211,0.077,0.396,0.16,0.55c0.141,0.257,0.229,0.571,0.228,0.904c0,0.234-0.043,0.477-0.141,0.72
			c-0.099,0.243-0.251,0.486-0.476,0.718c-0.13,0.135-0.222,0.286-0.278,0.443c-0.059,0.157-0.082,0.321-0.082,0.484
			c0.001,0.395,0.135,0.79,0.282,1.146c0.074,0.178,0.152,0.345,0.221,0.496c0.067,0.15,0.126,0.284,0.159,0.389
			c0.152,0.467,0.332,0.944,0.333,1.636C196.415,121.433,196.385,121.754,196.307,122.125"/>
		<path fill="#1E4077" d="M184.338,116.33c0.53-0.137,1.364-0.819,1.622-1.289c-1.396-0.956-2.274-0.152-2.836,0.88
			C183.457,116.254,183.807,116.466,184.338,116.33"/>
		<path fill="#1E4077" d="M186.422,114.84c0.033,0.013,0.05,0.02,0.05,0.02s-0.013-0.013-0.038-0.037
			c-0.026-0.024-0.063-0.061-0.113-0.105c-0.051-0.042-0.112-0.094-0.188-0.149c-0.038-0.026-0.079-0.054-0.122-0.084
			c-0.044-0.029-0.092-0.055-0.143-0.085c-0.049-0.03-0.104-0.054-0.16-0.083c-0.057-0.029-0.117-0.05-0.18-0.076
			c-0.127-0.045-0.265-0.088-0.414-0.109c-0.147-0.024-0.307-0.032-0.466-0.015c-0.16,0.014-0.319,0.052-0.473,0.107
			c-0.152,0.059-0.296,0.134-0.427,0.223c-0.132,0.087-0.248,0.187-0.352,0.292c-0.209,0.207-0.362,0.431-0.478,0.628
			c-0.028,0.05-0.056,0.097-0.079,0.143c-0.023,0.047-0.046,0.09-0.065,0.132c-0.039,0.084-0.069,0.158-0.094,0.22
			c-0.026,0.061-0.04,0.111-0.052,0.144c-0.012,0.034-0.018,0.052-0.018,0.052s0.013-0.015,0.035-0.042s0.055-0.067,0.096-0.118
			c0.042-0.05,0.093-0.111,0.15-0.181c0.058-0.069,0.124-0.145,0.196-0.227c0.074-0.081,0.152-0.169,0.241-0.255
			c0.087-0.088,0.182-0.175,0.283-0.258c0.051-0.043,0.104-0.082,0.157-0.123c0.055-0.037,0.111-0.076,0.168-0.111
			c0.116-0.069,0.237-0.131,0.363-0.178c0.125-0.047,0.256-0.078,0.386-0.097c0.065-0.011,0.131-0.013,0.196-0.018
			c0.064,0,0.13-0.002,0.194,0.003c0.129,0.006,0.253,0.027,0.371,0.051c0.118,0.026,0.23,0.056,0.333,0.089
			c0.053,0.017,0.102,0.033,0.148,0.05s0.092,0.034,0.133,0.05c0.084,0.033,0.157,0.062,0.217,0.087
			C186.341,114.807,186.39,114.826,186.422,114.84"/>
		<path fill="#1E4077" d="M192.604,116.603c0.682,0.243,0.895-0.364,1.213-0.667c0,0-0.379-0.516-1.152-0.743
			c-0.774-0.228-1.229,0.151-1.593,0.364C191.359,115.921,191.921,116.36,192.604,116.603"/>
		<path fill="#1E4077" d="M194.681,116.197c0,0-0.012-0.015-0.033-0.042c-0.021-0.028-0.056-0.066-0.093-0.118
			c-0.018-0.026-0.04-0.054-0.061-0.086c-0.021-0.033-0.044-0.066-0.067-0.103c-0.046-0.076-0.095-0.16-0.145-0.257
			c-0.052-0.095-0.104-0.202-0.165-0.315c-0.062-0.113-0.134-0.235-0.229-0.352l-0.035-0.045l-0.04-0.042
			c-0.026-0.028-0.053-0.057-0.084-0.083c-0.029-0.026-0.058-0.054-0.092-0.079c-0.035-0.024-0.069-0.049-0.105-0.074
			c-0.033-0.02-0.063-0.037-0.096-0.055l-0.023-0.014l-0.006-0.003l-0.003-0.002l-0.01-0.005l-0.002-0.001l-0.014-0.006
			l-0.058-0.025c-0.075-0.035-0.158-0.057-0.239-0.079c-0.166-0.035-0.335-0.037-0.493-0.018c-0.04,0.006-0.079,0.012-0.118,0.018
			c-0.038,0.007-0.075,0.017-0.111,0.026c-0.075,0.016-0.145,0.041-0.215,0.062c-0.272,0.097-0.505,0.218-0.699,0.327
			c-0.194,0.109-0.352,0.207-0.46,0.279c-0.056,0.034-0.098,0.064-0.126,0.083c-0.029,0.02-0.045,0.031-0.045,0.031
			s0.019-0.004,0.053-0.012c0.034-0.009,0.085-0.019,0.146-0.037c0.063-0.017,0.141-0.037,0.227-0.063
			c0.087-0.025,0.184-0.056,0.289-0.089c0.052-0.016,0.106-0.034,0.163-0.052c0.056-0.018,0.113-0.036,0.174-0.054
			c0.118-0.037,0.243-0.071,0.37-0.104c0.128-0.028,0.258-0.056,0.388-0.064c0.129-0.008,0.258-0.005,0.38,0.023
			c0.06,0.017,0.121,0.029,0.178,0.056l0.044,0.018l0.012,0.004l0.001,0.001c0.001,0,0,0-0.001-0.001l0.004,0.002l0.023,0.013
			c0.032,0.017,0.066,0.033,0.096,0.05c0.024,0.016,0.049,0.032,0.073,0.047c0.025,0.016,0.049,0.037,0.074,0.055
			c0.026,0.018,0.048,0.04,0.071,0.061l0.035,0.031l0.032,0.034c0.088,0.089,0.166,0.187,0.241,0.287
			c0.075,0.099,0.147,0.196,0.22,0.284c0.035,0.044,0.073,0.085,0.107,0.123c0.036,0.038,0.071,0.073,0.104,0.105
			c0.034,0.031,0.067,0.06,0.099,0.086c0.03,0.025,0.061,0.046,0.088,0.066c0.052,0.04,0.1,0.063,0.129,0.082
			C194.665,116.188,194.681,116.197,194.681,116.197"/>
		<path fill="#1E4077" d="M184.744,113.095l-0.07-0.044l-0.019-0.011l-0.004-0.003c-0.007-0.004-0.004-0.002-0.007-0.004
			l-0.003-0.002l-0.015-0.007c-0.02-0.01-0.037-0.021-0.06-0.029c-0.021-0.008-0.043-0.015-0.064-0.021
			c-0.023-0.005-0.047-0.009-0.07-0.012c-0.096-0.009-0.186,0.013-0.256,0.045c-0.037,0.015-0.067,0.034-0.098,0.052
			c-0.028,0.02-0.058,0.039-0.081,0.059c-0.101,0.081-0.179,0.166-0.249,0.251c-0.142,0.17-0.257,0.339-0.365,0.499
			s-0.206,0.313-0.297,0.454c-0.181,0.283-0.33,0.518-0.436,0.683c-0.053,0.082-0.093,0.149-0.122,0.193
			c-0.027,0.045-0.043,0.069-0.043,0.069s0.021-0.019,0.062-0.054c0.039-0.036,0.097-0.087,0.167-0.157
			c0.07-0.069,0.156-0.152,0.25-0.253c0.094-0.099,0.2-0.212,0.311-0.339c0.111-0.126,0.229-0.265,0.354-0.411
			c0.123-0.145,0.252-0.299,0.39-0.442c0.069-0.07,0.141-0.138,0.21-0.189c0.072-0.053,0.139-0.072,0.163-0.066l0.011,0.003
			c0.004,0.002,0.009,0.004,0.014,0.005c0.004,0.001,0.009,0.006,0.015,0.009l0.003,0.002h0.001c0,0,0,0,0.001,0l0.002,0.002
			l0.018,0.011l0.068,0.047l0.064,0.045c0.086,0.06,0.177,0.127,0.267,0.192c0.182,0.13,0.366,0.263,0.557,0.382
			c0.095,0.061,0.191,0.119,0.291,0.172c0.098,0.054,0.197,0.104,0.3,0.148c0.204,0.087,0.417,0.156,0.643,0.161
			c0.024,0,0.048,0,0.071-0.001c0.028-0.002,0.057-0.005,0.084-0.008c0.028-0.003,0.056-0.006,0.082-0.01
			c0.024-0.006,0.049-0.011,0.073-0.017c0.023-0.006,0.048-0.011,0.07-0.017c0.023-0.007,0.046-0.015,0.068-0.022
			c0.022-0.007,0.044-0.015,0.066-0.022c0.021-0.008,0.041-0.017,0.062-0.025c0.164-0.067,0.302-0.147,0.418-0.224
			c0.118-0.075,0.214-0.149,0.29-0.212c0.078-0.062,0.134-0.117,0.172-0.153c0.039-0.036,0.059-0.058,0.059-0.058
			s-0.025,0.014-0.072,0.039c-0.045,0.026-0.115,0.06-0.202,0.103c-0.087,0.044-0.195,0.091-0.318,0.143
			c-0.124,0.05-0.266,0.099-0.42,0.136c-0.019,0.005-0.039,0.01-0.058,0.014c-0.021,0.004-0.04,0.007-0.061,0.011
			c-0.02,0.004-0.04,0.007-0.06,0.011c-0.02,0.002-0.041,0.004-0.061,0.006c-0.021,0.002-0.041,0.004-0.063,0.006
			c-0.019,0-0.037-0.001-0.056,0c-0.02,0-0.038,0-0.058,0c-0.022-0.003-0.047-0.005-0.07-0.008
			c-0.157-0.021-0.333-0.091-0.507-0.181c-0.087-0.047-0.175-0.096-0.263-0.151c-0.088-0.055-0.176-0.113-0.265-0.173
			c-0.176-0.121-0.354-0.25-0.534-0.381c-0.092-0.066-0.181-0.13-0.278-0.196L184.744,113.095z"/>
		<path fill="#1E4077" d="M189.308,114.133c-0.067-0.036-0.125-0.077-0.183-0.111c-0.054-0.038-0.104-0.072-0.149-0.105
			c-0.042-0.035-0.081-0.066-0.116-0.092c-0.034-0.027-0.062-0.054-0.084-0.073c-0.045-0.04-0.07-0.061-0.07-0.061
			s0.02,0.027,0.053,0.076c0.019,0.025,0.038,0.056,0.065,0.091c0.027,0.034,0.06,0.074,0.097,0.118
			c0.038,0.043,0.083,0.087,0.13,0.138c0.025,0.024,0.053,0.048,0.081,0.073c0.028,0.024,0.057,0.052,0.089,0.075
			c0.126,0.102,0.282,0.203,0.471,0.284c0.188,0.08,0.414,0.137,0.662,0.126c0.245-0.009,0.508-0.093,0.73-0.244
			c0.054-0.037,0.116-0.079,0.16-0.116c0.047-0.038,0.098-0.081,0.145-0.121c0.097-0.082,0.191-0.165,0.284-0.25
			c0.188-0.166,0.374-0.339,0.565-0.477c0.094-0.067,0.192-0.128,0.277-0.156c0.044-0.016,0.081-0.021,0.108-0.019
			c0.028,0.002,0.049,0.009,0.074,0.026c0.025,0.014,0.052,0.049,0.078,0.084c0.012,0.021,0.025,0.038,0.037,0.063
			c0.014,0.027,0.026,0.054,0.041,0.082c0.014,0.027,0.028,0.054,0.043,0.082l0.021,0.04c0.008,0.015,0.02,0.031,0.029,0.046
			c0.039,0.062,0.079,0.124,0.125,0.173c0.021,0.025,0.043,0.052,0.065,0.076c0.024,0.023,0.049,0.046,0.071,0.068
			c0.047,0.048,0.097,0.083,0.146,0.123c0.098,0.073,0.191,0.139,0.279,0.2c0.178,0.123,0.328,0.247,0.458,0.377
			c0.063,0.068,0.125,0.131,0.177,0.199c0.025,0.033,0.052,0.065,0.077,0.097c0.025,0.032,0.047,0.065,0.068,0.096
			c0.09,0.124,0.156,0.242,0.216,0.336c0.056,0.098,0.099,0.175,0.127,0.228c0.03,0.052,0.046,0.08,0.046,0.08
			s-0.008-0.031-0.023-0.089c-0.019-0.058-0.038-0.145-0.075-0.252c-0.04-0.106-0.082-0.239-0.155-0.382
			c-0.017-0.036-0.034-0.074-0.054-0.112c-0.021-0.037-0.043-0.075-0.065-0.115c-0.042-0.08-0.101-0.156-0.156-0.24
			c-0.063-0.078-0.129-0.161-0.205-0.238c-0.037-0.041-0.078-0.078-0.119-0.116c-0.04-0.039-0.082-0.075-0.125-0.112
			c-0.043-0.038-0.085-0.072-0.128-0.108c-0.044-0.037-0.084-0.072-0.126-0.109c-0.077-0.075-0.155-0.147-0.214-0.233
			c-0.034-0.042-0.056-0.085-0.081-0.126c-0.006-0.011-0.014-0.019-0.02-0.032l-0.019-0.042c-0.014-0.028-0.026-0.056-0.039-0.084
			c-0.013-0.028-0.025-0.057-0.038-0.086c-0.014-0.033-0.036-0.067-0.054-0.101c-0.044-0.066-0.094-0.136-0.172-0.193
			c-0.076-0.058-0.178-0.099-0.276-0.107c-0.099-0.01-0.19,0.008-0.268,0.034c-0.078,0.025-0.148,0.058-0.212,0.095
			c-0.064,0.036-0.123,0.075-0.18,0.115c-0.223,0.164-0.412,0.344-0.595,0.518c-0.09,0.086-0.181,0.171-0.27,0.256
			c-0.045,0.042-0.086,0.08-0.132,0.12c-0.022,0.02-0.045,0.042-0.064,0.057c-0.021,0.016-0.042,0.033-0.063,0.049
			c-0.167,0.128-0.355,0.208-0.548,0.234c-0.193,0.028-0.385,0.005-0.558-0.043c-0.044-0.009-0.085-0.026-0.126-0.04
			c-0.021-0.007-0.041-0.014-0.062-0.021c-0.02-0.008-0.039-0.017-0.059-0.025c-0.038-0.017-0.076-0.031-0.112-0.05
			C189.375,114.169,189.34,114.151,189.308,114.133"/>
		<path fill="#1E4077" d="M184.836,123.543L184.836,123.543L184.836,123.543z"/>
		<path fill="#1E4077" d="M190.644,109.59c0.121-0.079,0.271-0.169,0.446-0.261c0.175-0.089,0.38-0.179,0.607-0.227
			c0.226-0.05,0.476-0.051,0.699,0.05c0.227,0.099,0.418,0.293,0.575,0.535c0.085,0.13,0.173,0.261,0.266,0.394
			c0.091,0.133,0.184,0.266,0.278,0.398c0.188,0.267,0.382,0.533,0.57,0.803c0.19,0.267,0.373,0.538,0.541,0.808
			c0.167,0.271,0.319,0.543,0.429,0.814l0.021,0.051l0.017,0.051c0.012,0.034,0.024,0.068,0.035,0.101l0.008,0.024l0.008,0.027
			l0.017,0.055c0.01,0.035,0.019,0.069,0.028,0.104c0.037,0.14,0.068,0.28,0.096,0.416c0.055,0.273,0.093,0.535,0.119,0.778
			c0.025,0.243,0.04,0.468,0.042,0.667c0.001,0.198-0.007,0.372-0.025,0.513c-0.018,0.142-0.043,0.252-0.069,0.324
			c-0.014,0.036-0.023,0.064-0.032,0.082c-0.009,0.019-0.013,0.028-0.013,0.028s0.006-0.008,0.019-0.025
			c0.012-0.016,0.027-0.041,0.048-0.075c0.039-0.068,0.088-0.175,0.128-0.317c0.042-0.142,0.079-0.318,0.102-0.522
			c0.024-0.204,0.04-0.435,0.038-0.687c-0.001-0.253-0.016-0.527-0.051-0.815c-0.018-0.144-0.041-0.292-0.071-0.443
			c-0.008-0.038-0.016-0.076-0.023-0.115l-0.012-0.055l-0.008-0.028l-0.008-0.031c-0.012-0.039-0.022-0.078-0.034-0.117l-0.017-0.06
			l-0.021-0.057c-0.027-0.077-0.054-0.156-0.089-0.23c-0.033-0.075-0.064-0.152-0.103-0.225c-0.036-0.074-0.073-0.149-0.113-0.221
			c-0.04-0.073-0.08-0.146-0.124-0.217c-0.168-0.287-0.354-0.566-0.546-0.839c-0.193-0.272-0.39-0.539-0.585-0.8
			c-0.096-0.13-0.193-0.259-0.288-0.387c-0.094-0.128-0.187-0.254-0.278-0.379c-0.098-0.132-0.209-0.261-0.336-0.366
			c-0.128-0.107-0.271-0.194-0.425-0.248c-0.153-0.055-0.312-0.075-0.46-0.069c-0.148,0.006-0.288,0.036-0.414,0.077
			s-0.24,0.092-0.344,0.148c-0.104,0.056-0.196,0.115-0.282,0.173c-0.17,0.117-0.305,0.233-0.414,0.331
			c-0.109,0.097-0.188,0.179-0.245,0.234c-0.054,0.056-0.082,0.086-0.082,0.086s0.034-0.024,0.098-0.068
			C190.429,109.733,190.523,109.669,190.644,109.59"/>
		<path fill="#1E4077" d="M182.243,116.804c-0.006-0.202-0.025-0.429-0.055-0.673c-0.031-0.245-0.072-0.508-0.116-0.784
			c-0.045-0.276-0.094-0.567-0.134-0.863c-0.02-0.149-0.036-0.299-0.043-0.446c-0.003-0.074-0.004-0.147,0-0.216
			c0.002-0.016,0.003-0.035,0.004-0.049l0.003-0.022c0-0.006,0.003-0.018,0.004-0.028c0.006-0.035,0.015-0.075,0.022-0.113
			c0.016-0.076,0.031-0.152,0.047-0.229c0.009-0.038,0.016-0.077,0.024-0.115l0.03-0.114c0.041-0.152,0.078-0.305,0.133-0.454
			l0.074-0.225c0.026-0.074,0.058-0.147,0.087-0.22l0.043-0.11c0.015-0.037,0.028-0.074,0.045-0.109
			c0.033-0.072,0.066-0.143,0.098-0.214c0.017-0.035,0.032-0.071,0.05-0.106c0.016-0.035,0.034-0.069,0.053-0.104
			c0.035-0.069,0.069-0.137,0.105-0.205c0.033-0.069,0.073-0.134,0.111-0.2s0.075-0.131,0.113-0.196
			c0.078-0.127,0.159-0.25,0.235-0.372c0.082-0.118,0.161-0.236,0.242-0.347c0.083-0.11,0.161-0.22,0.242-0.321
			c0.082-0.101,0.158-0.202,0.236-0.293c0.079-0.092,0.151-0.182,0.226-0.264c0.074-0.083,0.144-0.161,0.209-0.235
			c0.068-0.072,0.132-0.138,0.19-0.201c0.058-0.063,0.114-0.118,0.164-0.169c0.099-0.102,0.18-0.181,0.234-0.234
			c0.055-0.055,0.083-0.084,0.083-0.084s-0.034,0.023-0.098,0.065c-0.063,0.044-0.158,0.104-0.272,0.191
			c-0.058,0.043-0.123,0.089-0.19,0.143c-0.068,0.053-0.141,0.113-0.218,0.176c-0.076,0.066-0.157,0.136-0.242,0.209
			c-0.085,0.074-0.168,0.158-0.259,0.242c-0.047,0.042-0.09,0.088-0.135,0.134c-0.045,0.047-0.09,0.094-0.136,0.142
			c-0.048,0.047-0.092,0.099-0.138,0.151c-0.045,0.052-0.092,0.105-0.139,0.158c-0.049,0.052-0.091,0.111-0.137,0.168
			s-0.092,0.115-0.139,0.173c-0.089,0.121-0.178,0.245-0.268,0.374c-0.171,0.26-0.339,0.537-0.482,0.833
			c-0.036,0.074-0.072,0.148-0.108,0.223c-0.037,0.074-0.064,0.153-0.097,0.229c-0.031,0.078-0.064,0.155-0.094,0.233l-0.08,0.238
			c-0.058,0.158-0.096,0.322-0.139,0.483l-0.03,0.121c-0.01,0.041-0.017,0.082-0.023,0.123c-0.015,0.082-0.03,0.163-0.045,0.245
			c-0.007,0.041-0.015,0.079-0.021,0.123l-0.005,0.031l-0.004,0.038c-0.002,0.025-0.003,0.046-0.004,0.07
			c-0.002,0.089,0.002,0.175,0.009,0.258c0.015,0.166,0.038,0.324,0.066,0.477c0.056,0.306,0.125,0.595,0.19,0.868
			c0.065,0.272,0.13,0.528,0.185,0.764c0.055,0.237,0.102,0.453,0.133,0.647c0.03,0.193,0.048,0.362,0.045,0.501
			c-0.004,0.139-0.026,0.247-0.062,0.313c-0.018,0.033-0.035,0.056-0.048,0.071c-0.014,0.014-0.021,0.022-0.021,0.022
			s0.008-0.006,0.025-0.017c0.015-0.013,0.039-0.032,0.062-0.064c0.05-0.062,0.099-0.171,0.124-0.316
			C182.239,117.184,182.25,117.005,182.243,116.804"/>
		<path fill="#1E4077" d="M192.486,144.024c0.142-0.173,0.209-0.355,0.21-0.53v-0.011l-0.002-0.011
			c-0.093-0.686-0.176-1.286-0.233-1.71c-0.028-0.21-0.052-0.378-0.067-0.493c-0.016-0.115-0.024-0.177-0.024-0.178l-0.017-0.121
			c0.06-0.332,0.098-0.693,0.132-1.025c0.063-0.617,0.08-1.267,0.08-1.914c0-0.738-0.021-1.469-0.021-2.134
			c0-0.278,0.004-0.544,0.015-0.793c0.071-1.655,0.124-1.937,0.124-3.047c-0.001-0.742-0.024-1.352-0.083-1.831l0.012,0.083v-2.082
			v-0.036l-0.018-0.031c-0.146-0.258-0.381-0.508-0.676-0.743c-0.442-0.353-1.022-0.671-1.652-0.904
			c-0.63-0.232-1.311-0.378-1.954-0.379c-0.42,0-0.785,0.026-1.12,0.085c-0.504,0.09-0.942,0.258-1.396,0.526
			c-0.455,0.269-0.93,0.636-1.521,1.128c-0.063,0.052-0.113,0.115-0.153,0.183c-0.059,0.102-0.095,0.215-0.116,0.33
			c-0.022,0.115-0.03,0.232-0.03,0.345c0.001,0.319,0.063,0.602,0.077,0.662c0.001,0.013,0.003,0.039,0.005,0.078
			c0.031,0.435,0.17,1.303,0.301,3.509c0.065,1.103,0.129,2.262,0.176,3.311c0.047,1.049,0.078,1.989,0.078,2.652
			c0,0.721,0.086,1.364,0.274,1.925c0.004,0.011,0.008,0.022,0.012,0.033v0.143c0,0.542,0,1.34,0,1.978
			c0,0.38,0.208,0.879,0.774,1.278c0.287,0.203,0.667,0.381,1.159,0.509c0.498,0.13,1.112,0.208,1.865,0.208
			c1.513,0,2.502-0.213,3.123-0.507C192.129,144.364,192.345,144.198,192.486,144.024 M191.746,127.63
			c0.265,0.21,0.469,0.43,0.592,0.636c0,0.278,0,0.765,0,1.144c-0.135-0.188-0.319-0.344-0.54-0.473
			c-0.055-0.031-0.11-0.061-0.168-0.089c0.003-0.03,0.006-0.061,0.007-0.096c0.003-0.055,0.004-0.119,0.004-0.191
			c0-0.243-0.013-0.587-0.025-1.031C191.66,127.563,191.704,127.597,191.746,127.63 M190.756,127.019
			c0.206,0.1,0.401,0.209,0.582,0.323c0.013,0.541,0.029,0.953,0.029,1.22c0,0.067-0.001,0.125-0.003,0.172
			c-0.274-0.104-0.586-0.184-0.924-0.244c0.022-0.155,0.029-0.355,0.029-0.569c0-0.379-0.023-0.799-0.04-1.048
			C190.54,126.918,190.649,126.967,190.756,127.019 M188.444,126.798c0.001-0.152,0.002-0.283,0.002-0.377c0-0.004,0-0.007,0-0.011
			c0.558,0.018,1.148,0.15,1.702,0.352c0.015,0.2,0.048,0.714,0.048,1.158c0,0.141-0.003,0.275-0.012,0.387
			c-0.003,0.052-0.008,0.098-0.014,0.139c-0.52-0.073-1.093-0.105-1.693-0.105c-0.011,0-0.022,0-0.033,0
			c-0.002-0.122-0.002-0.312-0.002-0.526C188.442,127.488,188.443,127.103,188.444,126.798 M186.628,126.682c0-0.019,0-0.03,0-0.033
			c0.052-0.018,0.104-0.036,0.157-0.052c0.403-0.124,0.84-0.181,1.389-0.188c-0.001,0.275-0.004,0.908-0.004,1.406
			c0,0.163,0,0.312,0.001,0.429c0,0.038,0.001,0.072,0.001,0.102c-0.517,0.015-1.012,0.065-1.47,0.137
			c-0.01-0.083-0.019-0.172-0.026-0.264c-0.043-0.528-0.048-1.172-0.048-1.442C186.628,126.736,186.628,126.704,186.628,126.682
			 M185.363,127.359c0.041-0.03,0.082-0.06,0.122-0.088c0.309-0.217,0.588-0.384,0.869-0.511c0,0.006,0,0.011,0,0.017
			c0,0.183,0.002,0.532,0.017,0.904c0.008,0.187,0.018,0.379,0.032,0.56c0.009,0.1,0.019,0.196,0.03,0.287
			c-0.252,0.045-0.492,0.096-0.714,0.151c-0.126,0.031-0.246,0.063-0.361,0.095c0.013-0.227,0.019-0.393,0.019-0.573
			C185.377,127.984,185.369,127.749,185.363,127.359 M184.246,128.731c0-0.133,0.014-0.269,0.047-0.384
			c0.017-0.057,0.037-0.109,0.063-0.153c0.026-0.045,0.056-0.082,0.092-0.111c0.232-0.194,0.445-0.367,0.646-0.521
			c0.006,0.277,0.01,0.466,0.01,0.639c0,0.2-0.006,0.38-0.024,0.656c-0.126,0.04-0.243,0.08-0.351,0.12
			c-0.136,0.05-0.256,0.099-0.359,0.146c-0.029,0.014-0.058,0.027-0.085,0.04C184.266,129.049,184.246,128.894,184.246,128.731
			 M185.75,142.464c-0.013,0.277-0.04,0.873-0.07,1.494c-0.072-0.059-0.136-0.118-0.191-0.178c-0.255-0.278-0.339-0.559-0.34-0.761
			c-0.002-0.449-0.005-0.979-0.007-1.442c0.172,0.3,0.37,0.551,0.583,0.762c0.01,0.009,0.02,0.018,0.03,0.027
			C185.753,142.393,185.752,142.425,185.75,142.464 M186.882,144.521c-0.397-0.102-0.708-0.236-0.951-0.385
			c0.028-0.611,0.053-1.223,0.066-1.557c0.327,0.257,0.676,0.432,1.013,0.55c-0.002,0.009-0.004,0.017-0.006,0.026
			c-0.021,0.099-0.033,0.211-0.039,0.333c-0.006,0.123-0.006,0.256-0.002,0.393c0.008,0.221,0.029,0.454,0.062,0.674
			C186.976,144.544,186.928,144.533,186.882,144.521 M187.302,144.61c-0.04-0.233-0.067-0.491-0.076-0.73
			c-0.007-0.173-0.005-0.337,0.007-0.474c0.005-0.068,0.014-0.13,0.024-0.182c0.001-0.006,0.003-0.012,0.004-0.018
			c0.012,0.004,0.023,0.007,0.036,0.01c0.404,0.108,0.777,0.14,1.065,0.147c0.011,0.118,0.028,0.317,0.045,0.592
			c0.013,0.209,0.025,0.462,0.035,0.758C188.012,144.704,187.633,144.667,187.302,144.61 M189.961,144.554
			c-0.003,0.037-0.008,0.07-0.013,0.099c-0.362,0.038-0.773,0.06-1.234,0.062c-0.012-0.297-0.025-0.551-0.039-0.761
			c-0.019-0.269-0.035-0.467-0.048-0.59c0.472-0.007,0.891-0.067,1.262-0.164c0.012,0.106,0.026,0.251,0.042,0.412
			c0.018,0.212,0.034,0.451,0.037,0.66C189.969,144.377,189.967,144.474,189.961,144.554 M191.357,144.271
			c-0.002,0.037-0.006,0.068-0.01,0.094c0,0,0,0,0,0.001c-0.054,0.019-0.111,0.037-0.17,0.055c-0.264,0.079-0.576,0.146-0.943,0.197
			c0-0.004,0.001-0.007,0.001-0.011c0.011-0.141,0.009-0.309,0.002-0.483c-0.008-0.173-0.021-0.352-0.037-0.514
			c-0.019-0.201-0.039-0.377-0.053-0.486c0.114-0.037,0.223-0.077,0.326-0.121c0.281-0.117,0.521-0.256,0.729-0.403
			c0.011,0.057,0.021,0.126,0.032,0.203c0.022,0.154,0.048,0.342,0.069,0.536c0.025,0.23,0.048,0.469,0.054,0.669
			C191.362,144.109,191.362,144.199,191.357,144.271 M191.315,142.52L191.315,142.52l0.003,0.031L191.315,142.52z M190.344,142.742
			c-0.471,0.196-1.055,0.33-1.774,0.338c-0.383,0.005-1.044-0.019-1.715-0.305c-0.331-0.141-0.661-0.344-0.961-0.636
			c-0.204-0.199-0.392-0.44-0.557-0.73c-0.176-0.526-0.453-1.771-0.453-2.466c0-0.716-0.035-1.74-0.088-2.876
			c-0.146-3.129-0.424-5.988-0.468-6.618c0.122-0.065,0.415-0.204,0.92-0.355l0.092-0.027v-0.003c0.801-0.235,1.925-0.45,3.138-0.45
			c1.008,0,1.934,0.092,2.618,0.314c0.342,0.111,0.622,0.254,0.823,0.427c0.1,0.087,0.181,0.181,0.242,0.283
			s0.104,0.213,0.125,0.335c0.086,0.482,0.122,1.186,0.122,2.084c0,1.101-0.053,1.382-0.124,3.035
			c-0.011,0.255-0.015,0.525-0.015,0.805c0,0.67,0.022,1.402,0.022,2.134c0,0.652-0.018,1.304-0.082,1.914
			c-0.047,0.44-0.095,0.942-0.2,1.321c-0.099,0.191-0.277,0.48-0.58,0.772C191.168,142.292,190.813,142.547,190.344,142.742
			 M191.578,143.336c-0.028-0.247-0.063-0.481-0.091-0.655c-0.013-0.086-0.025-0.157-0.035-0.208
			c-0.004-0.023-0.008-0.041-0.011-0.056c0.232-0.196,0.411-0.397,0.546-0.58c0.071-0.096,0.13-0.186,0.178-0.268
			c0.057,0.421,0.146,1.098,0.25,1.892c-0.003,0.095-0.042,0.217-0.151,0.351c-0.118,0.144-0.317,0.299-0.624,0.438
			c0.001-0.009,0.001-0.018,0.001-0.027C191.644,143.973,191.614,143.646,191.578,143.336"/>
		<path fill="#1E4077" d="M184.045,126.666c0.051-0.214,0.11-0.441,0.179-0.664c0.035-0.111,0.072-0.222,0.11-0.33
			c0.039-0.107,0.079-0.213,0.121-0.313c0.021-0.051,0.042-0.1,0.063-0.148c0.021-0.048,0.043-0.095,0.065-0.14
			c0.021-0.045,0.043-0.089,0.064-0.13c0.022-0.042,0.042-0.084,0.064-0.121c0.021-0.038,0.043-0.075,0.063-0.109
			c0.021-0.035,0.041-0.067,0.061-0.098c0.038-0.061,0.074-0.112,0.102-0.156c0.062-0.084,0.096-0.134,0.096-0.134
			s-0.013,0.009-0.034,0.026c-0.022,0.018-0.056,0.043-0.096,0.078c-0.037,0.036-0.087,0.078-0.137,0.133
			c-0.024,0.027-0.052,0.056-0.08,0.086c-0.026,0.031-0.053,0.066-0.082,0.102c-0.056,0.071-0.115,0.151-0.17,0.24
			c-0.029,0.044-0.056,0.09-0.083,0.138c-0.029,0.047-0.054,0.097-0.08,0.148c-0.026,0.05-0.05,0.103-0.075,0.157
			c-0.024,0.053-0.047,0.108-0.068,0.163c-0.045,0.111-0.084,0.226-0.121,0.341c-0.034,0.117-0.067,0.233-0.093,0.349
			c-0.015,0.058-0.026,0.116-0.036,0.173c-0.012,0.057-0.021,0.114-0.03,0.17c-0.036,0.223-0.054,0.434-0.061,0.614
			c-0.004,0.09-0.004,0.173-0.003,0.246c0,0.073,0.004,0.137,0.007,0.19c0.007,0.105,0.016,0.164,0.016,0.164
			s0.011-0.059,0.029-0.162s0.046-0.249,0.08-0.423c0.018-0.087,0.038-0.181,0.059-0.28
			C183.996,126.877,184.02,126.773,184.045,126.666"/>
		<path fill="#1E4077" d="M184.309,126.15c-0.006,0.01-0.017,0.025-0.026,0.045c-0.021,0.039-0.051,0.096-0.079,0.165
			c-0.028,0.069-0.058,0.151-0.083,0.24c-0.012,0.045-0.024,0.091-0.035,0.138c-0.011,0.048-0.019,0.096-0.027,0.145
			c-0.008,0.049-0.017,0.097-0.021,0.146c-0.005,0.049-0.008,0.097-0.011,0.143c-0.001,0.023-0.002,0.046-0.002,0.069
			c0,0.022,0.001,0.045,0.001,0.066c0.002,0.044,0.005,0.084,0.008,0.122c0.002,0.019,0.004,0.037,0.006,0.054
			c0.004,0.017,0.007,0.034,0.011,0.049c0.007,0.031,0.014,0.057,0.02,0.079c0.012,0.043,0.022,0.067,0.022,0.067
			s0.01-0.025,0.023-0.067c0.006-0.021,0.015-0.047,0.022-0.076c0.004-0.014,0.008-0.029,0.012-0.045
			c0.005-0.016,0.01-0.033,0.016-0.051c0.011-0.035,0.021-0.073,0.031-0.114c0.009-0.04,0.019-0.082,0.03-0.127
			c0.011-0.044,0.021-0.09,0.028-0.136c0.01-0.047,0.018-0.094,0.026-0.142c0.008-0.048,0.015-0.096,0.021-0.143
			c0.006-0.047,0.012-0.094,0.016-0.14c0.008-0.091,0.013-0.176,0.014-0.251c0-0.074-0.002-0.137-0.006-0.181
			c-0.004-0.045-0.008-0.071-0.008-0.071S184.315,126.141,184.309,126.15"/>
		<path fill="#1E4077" d="M185.469,124.838c0.04-0.048,0.078-0.097,0.116-0.144c0.074-0.094,0.145-0.182,0.203-0.26
			s0.106-0.144,0.139-0.192c0.018-0.023,0.03-0.043,0.039-0.055c0.009-0.014,0.014-0.021,0.014-0.021s-0.031,0.014-0.082,0.043
			c-0.051,0.029-0.121,0.073-0.201,0.131c-0.08,0.059-0.17,0.132-0.259,0.218c-0.046,0.042-0.09,0.089-0.136,0.136
			c-0.044,0.047-0.086,0.098-0.129,0.149c-0.04,0.052-0.082,0.104-0.118,0.158c-0.019,0.027-0.036,0.054-0.055,0.081
			c-0.017,0.026-0.035,0.053-0.05,0.081c-0.03,0.054-0.061,0.105-0.085,0.158c-0.024,0.053-0.047,0.101-0.065,0.148
			c-0.017,0.048-0.03,0.091-0.043,0.13s-0.018,0.075-0.024,0.103c-0.012,0.058-0.017,0.091-0.017,0.091s0.023-0.026,0.059-0.072
			c0.017-0.023,0.037-0.051,0.061-0.083c0.025-0.031,0.053-0.066,0.081-0.104c0.028-0.039,0.063-0.079,0.095-0.123
			s0.07-0.087,0.106-0.135c0.035-0.047,0.077-0.093,0.114-0.143c0.039-0.049,0.079-0.098,0.119-0.147
			C185.391,124.937,185.431,124.888,185.469,124.838"/>
		<path fill="#1E4077" d="M185.155,125.654c-0.026,0.035-0.054,0.075-0.077,0.117c-0.025,0.043-0.05,0.088-0.075,0.136
			c-0.023,0.048-0.045,0.099-0.066,0.151c-0.01,0.027-0.021,0.052-0.03,0.079l-0.026,0.082c-0.016,0.055-0.035,0.109-0.046,0.164
			c-0.013,0.055-0.022,0.109-0.032,0.162c-0.01,0.052-0.014,0.104-0.017,0.154c-0.003,0.049-0.005,0.095-0.006,0.138
			c-0.002,0.043,0.003,0.083,0.005,0.118c0.003,0.035,0.007,0.066,0.011,0.091c0.006,0.05,0.013,0.078,0.013,0.078
			s0.014-0.027,0.032-0.074c0.009-0.023,0.021-0.051,0.031-0.084c0.013-0.032,0.021-0.068,0.038-0.107
			c0.014-0.04,0.028-0.082,0.044-0.127c0.014-0.045,0.027-0.092,0.046-0.14c0.016-0.049,0.033-0.099,0.047-0.151
			c0.017-0.05,0.034-0.102,0.05-0.154c0.016-0.052,0.031-0.104,0.049-0.154c0.017-0.051,0.031-0.102,0.045-0.151
			c0.017-0.048,0.031-0.096,0.045-0.141c0.012-0.046,0.025-0.088,0.037-0.127s0.021-0.076,0.03-0.11
			c0.011-0.032,0.02-0.062,0.026-0.086c0.014-0.048,0.02-0.078,0.02-0.078s-0.022,0.019-0.058,0.055
			c-0.019,0.018-0.04,0.039-0.063,0.065C185.205,125.587,185.181,125.62,185.155,125.654"/>
		<path fill="#1E4077" d="M185.399,126.457c0.005,0.063,0.011,0.099,0.011,0.099s0.015-0.034,0.034-0.094
			c0.01-0.03,0.022-0.065,0.034-0.107c0.012-0.041,0.03-0.086,0.045-0.136c0.017-0.05,0.032-0.104,0.052-0.16
			c0.021-0.056,0.037-0.116,0.061-0.177c0.021-0.061,0.043-0.123,0.065-0.187c0.025-0.062,0.045-0.128,0.072-0.191
			c0.025-0.064,0.049-0.128,0.075-0.19c0.013-0.031,0.025-0.062,0.038-0.093c0.014-0.03,0.026-0.06,0.039-0.09
			c0.023-0.06,0.051-0.116,0.073-0.171c0.026-0.054,0.048-0.106,0.07-0.153c0.021-0.048,0.041-0.092,0.059-0.131
			c0.019-0.039,0.034-0.073,0.048-0.101c0.014-0.028,0.023-0.051,0.031-0.066c0.008-0.015,0.012-0.024,0.012-0.024
			s-0.031,0.021-0.078,0.063c-0.024,0.021-0.053,0.047-0.083,0.079c-0.016,0.016-0.031,0.033-0.049,0.051
			c-0.017,0.018-0.033,0.038-0.051,0.059c-0.035,0.041-0.069,0.088-0.106,0.138c-0.034,0.052-0.073,0.106-0.105,0.165
			c-0.035,0.058-0.068,0.119-0.099,0.184c-0.032,0.063-0.059,0.131-0.086,0.198c-0.028,0.067-0.048,0.136-0.07,0.204
			c-0.011,0.034-0.019,0.068-0.026,0.102c-0.01,0.034-0.018,0.068-0.024,0.101c-0.015,0.066-0.022,0.131-0.032,0.192
			s-0.012,0.12-0.014,0.175c-0.002,0.054-0.006,0.103-0.003,0.147C185.394,126.387,185.397,126.426,185.399,126.457"/>
		<path fill="#1E4077" d="M187.162,124.064c0,0-0.038,0.016-0.101,0.052c-0.031,0.018-0.069,0.04-0.11,0.069
			c-0.042,0.027-0.089,0.059-0.138,0.097c-0.099,0.075-0.208,0.169-0.316,0.281c-0.054,0.055-0.106,0.115-0.159,0.178
			c-0.052,0.063-0.101,0.13-0.148,0.198c-0.046,0.069-0.091,0.139-0.13,0.212c-0.021,0.035-0.039,0.072-0.057,0.108
			c-0.018,0.036-0.034,0.073-0.049,0.109c-0.031,0.072-0.056,0.144-0.077,0.213c-0.01,0.034-0.019,0.068-0.026,0.101
			c-0.009,0.033-0.016,0.064-0.02,0.095c-0.012,0.062-0.017,0.119-0.021,0.17c-0.004,0.05-0.003,0.095-0.003,0.131
			c0.003,0.072,0.008,0.113,0.008,0.113s0.015-0.039,0.037-0.106c0.012-0.034,0.025-0.074,0.043-0.12
			c0.019-0.045,0.039-0.096,0.063-0.15c0.011-0.027,0.024-0.055,0.038-0.084c0.013-0.029,0.026-0.059,0.042-0.088
			c0.03-0.061,0.063-0.123,0.098-0.187c0.072-0.128,0.154-0.26,0.242-0.389c0.044-0.065,0.09-0.128,0.136-0.191
			c0.046-0.062,0.092-0.123,0.137-0.182c0.091-0.117,0.179-0.225,0.255-0.318C187.06,124.189,187.162,124.064,187.162,124.064"/>
		<path fill="#1E4077" d="M186.463,125.307c-0.027,0.035-0.054,0.073-0.08,0.113c-0.025,0.039-0.048,0.081-0.071,0.122
			c-0.021,0.044-0.043,0.086-0.062,0.13c-0.009,0.022-0.017,0.044-0.024,0.066c-0.009,0.022-0.017,0.043-0.022,0.065
			c-0.012,0.044-0.025,0.086-0.032,0.128c-0.007,0.041-0.014,0.08-0.016,0.117c-0.002,0.036-0.003,0.07-0.003,0.1
			c0,0.029,0.005,0.056,0.008,0.077c0.005,0.043,0.011,0.067,0.011,0.067s0.015-0.022,0.033-0.059
			c0.01-0.019,0.02-0.041,0.034-0.066c0.014-0.025,0.029-0.053,0.044-0.084c0.063-0.118,0.146-0.276,0.229-0.434
			c0.021-0.04,0.042-0.079,0.063-0.119c0.021-0.039,0.04-0.078,0.059-0.116c0.038-0.076,0.073-0.148,0.102-0.212
			c0.027-0.064,0.05-0.119,0.063-0.158c0.016-0.04,0.023-0.064,0.023-0.064s-0.023,0.011-0.059,0.036
			c-0.034,0.024-0.083,0.06-0.136,0.11C186.575,125.175,186.518,125.236,186.463,125.307"/>
		<path fill="#1E4077" d="M186.993,125.782c0.011-0.025,0.029-0.054,0.045-0.087c0.016-0.034,0.04-0.071,0.061-0.111
			c0.021-0.041,0.049-0.084,0.072-0.131c0.026-0.046,0.053-0.095,0.081-0.145c0.027-0.051,0.058-0.103,0.085-0.157
			c0.029-0.053,0.058-0.108,0.086-0.163c0.028-0.055,0.057-0.11,0.082-0.165c0.028-0.054,0.054-0.109,0.078-0.162
			c0.049-0.106,0.091-0.206,0.126-0.294c0.034-0.088,0.061-0.163,0.077-0.217c0.017-0.053,0.024-0.085,0.024-0.085
			s-0.007,0.005-0.018,0.016c-0.01,0.01-0.026,0.025-0.046,0.046c-0.039,0.04-0.093,0.1-0.152,0.174
			c-0.059,0.074-0.124,0.164-0.188,0.263c-0.032,0.049-0.064,0.102-0.095,0.155c-0.031,0.054-0.062,0.11-0.092,0.165
			c-0.027,0.057-0.056,0.113-0.081,0.17c-0.025,0.057-0.049,0.114-0.069,0.17c-0.021,0.056-0.041,0.11-0.057,0.163
			c-0.014,0.054-0.029,0.103-0.037,0.151c-0.01,0.049-0.02,0.091-0.021,0.132c-0.003,0.04-0.006,0.074-0.005,0.103
			c0.003,0.058,0.008,0.089,0.008,0.089S186.972,125.832,186.993,125.782"/>
		<path fill="#1E4077" d="M187.773,125.5c0.003,0.035,0.008,0.067,0.016,0.097c0.015,0.06,0.031,0.11,0.044,0.144
			c0.014,0.034,0.023,0.052,0.023,0.052s0.01-0.02,0.021-0.054c0.014-0.034,0.029-0.082,0.043-0.139
			c0.006-0.028,0.015-0.059,0.023-0.091c0.008-0.032,0.016-0.066,0.021-0.101c0.005-0.018,0.008-0.035,0.011-0.053
			s0.007-0.037,0.01-0.055c0.008-0.037,0.013-0.074,0.018-0.111c0.004-0.038,0.012-0.075,0.016-0.112
			c0.005-0.037,0.008-0.074,0.011-0.11c0.008-0.071,0.009-0.139,0.01-0.198c0.001-0.06-0.002-0.11-0.004-0.146
			c-0.001-0.018-0.003-0.033-0.004-0.043c-0.001-0.01-0.002-0.015-0.002-0.015s-0.015,0.015-0.037,0.044
			c-0.011,0.015-0.025,0.033-0.038,0.054s-0.026,0.046-0.042,0.073c-0.029,0.054-0.055,0.119-0.08,0.19
			c-0.011,0.036-0.021,0.074-0.031,0.112c-0.009,0.038-0.017,0.078-0.022,0.117c-0.004,0.04-0.009,0.08-0.012,0.12
			c-0.004,0.039-0.003,0.078-0.002,0.116C187.768,125.429,187.771,125.465,187.773,125.5"/>
		<path fill="#1E4077" d="M188.771,125.435c-0.011-0.028-0.021-0.056-0.032-0.083s-0.024-0.053-0.038-0.078
			c-0.026-0.051-0.054-0.096-0.082-0.134c-0.028-0.037-0.056-0.067-0.076-0.088c-0.021-0.02-0.035-0.031-0.035-0.031
			s-0.005,0.017-0.008,0.046c-0.004,0.029-0.007,0.069-0.006,0.116c0.002,0.047,0.007,0.1,0.017,0.156
			c0.006,0.027,0.012,0.056,0.02,0.084c0.007,0.029,0.017,0.057,0.026,0.086c0.01,0.028,0.02,0.056,0.031,0.083
			c0.012,0.027,0.024,0.053,0.037,0.078c0.026,0.05,0.056,0.096,0.083,0.133c0.028,0.038,0.056,0.068,0.076,0.089
			c0.021,0.02,0.035,0.031,0.035,0.031s0.004-0.017,0.008-0.046s0.007-0.069,0.006-0.116c-0.001-0.047-0.007-0.101-0.017-0.156
			c-0.005-0.028-0.011-0.056-0.02-0.085C188.79,125.492,188.78,125.462,188.771,125.435"/>
		<path fill="#1E4077" d="M189.079,125.393c0.033,0.048,0.065,0.094,0.096,0.138c0.032,0.044,0.06,0.086,0.085,0.125
			c0.028,0.038,0.051,0.074,0.072,0.107c0.021,0.032,0.041,0.06,0.054,0.084c0.028,0.048,0.048,0.076,0.048,0.076
			s0.001-0.032-0.005-0.09c-0.002-0.03-0.007-0.064-0.016-0.103c-0.008-0.04-0.018-0.085-0.033-0.131
			c-0.016-0.046-0.032-0.098-0.054-0.149c-0.022-0.052-0.045-0.106-0.073-0.16c-0.027-0.054-0.057-0.11-0.09-0.164
			c-0.032-0.055-0.067-0.109-0.103-0.162c-0.036-0.054-0.074-0.106-0.112-0.156c-0.037-0.051-0.077-0.098-0.116-0.145
			c-0.078-0.091-0.155-0.173-0.225-0.239c-0.07-0.067-0.132-0.119-0.179-0.154c-0.021-0.018-0.041-0.031-0.053-0.04
			c-0.013-0.008-0.02-0.013-0.02-0.013s0.013,0.03,0.038,0.081c0.024,0.052,0.062,0.123,0.108,0.206
			c0.047,0.084,0.104,0.179,0.167,0.279c0.031,0.05,0.065,0.101,0.099,0.152c0.033,0.052,0.068,0.104,0.104,0.156
			C188.942,125.193,189.013,125.296,189.079,125.393"/>
		<path fill="#1E4077" d="M189.75,125.341c0.041,0.057,0.082,0.111,0.118,0.164c0.019,0.026,0.037,0.051,0.055,0.076
			c0.017,0.025,0.033,0.049,0.048,0.072c0.018,0.023,0.032,0.045,0.047,0.066c0.014,0.022,0.026,0.043,0.038,0.062
			c0.023,0.039,0.049,0.072,0.063,0.102c0.029,0.058,0.051,0.093,0.051,0.093s-0.001-0.038-0.008-0.107
			c-0.002-0.036-0.014-0.075-0.024-0.122c-0.006-0.023-0.012-0.048-0.02-0.074c-0.009-0.026-0.019-0.052-0.028-0.08
			c-0.01-0.027-0.021-0.056-0.032-0.086c-0.013-0.028-0.026-0.058-0.041-0.088c-0.014-0.03-0.028-0.062-0.045-0.093
			c-0.016-0.031-0.034-0.062-0.051-0.094c-0.035-0.064-0.074-0.127-0.116-0.191c-0.039-0.065-0.085-0.126-0.13-0.189
			c-0.045-0.062-0.092-0.123-0.139-0.182c-0.048-0.058-0.097-0.115-0.145-0.169c-0.095-0.107-0.188-0.203-0.273-0.281
			c-0.084-0.079-0.158-0.141-0.212-0.183c-0.026-0.021-0.049-0.036-0.063-0.047c-0.015-0.011-0.022-0.016-0.022-0.016
			s0.018,0.035,0.052,0.093c0.034,0.059,0.084,0.14,0.145,0.237c0.063,0.096,0.137,0.206,0.219,0.322
			c0.039,0.058,0.082,0.118,0.126,0.178c0.043,0.06,0.087,0.121,0.131,0.182C189.579,125.107,189.667,125.228,189.75,125.341"/>
		<path fill="#1E4077" d="M190.351,125.2c0.05,0.068,0.1,0.135,0.147,0.199c0.046,0.066,0.091,0.129,0.135,0.189
			c0.04,0.061,0.078,0.119,0.115,0.173c0.035,0.054,0.065,0.105,0.095,0.149c0.028,0.045,0.05,0.086,0.068,0.119
			c0.037,0.067,0.062,0.106,0.062,0.106s-0.005-0.044-0.019-0.121c-0.008-0.039-0.014-0.087-0.032-0.138
			c-0.016-0.052-0.031-0.112-0.056-0.175c-0.026-0.061-0.053-0.129-0.086-0.199c-0.035-0.068-0.071-0.14-0.113-0.213
			c-0.021-0.035-0.044-0.071-0.066-0.108c-0.022-0.036-0.045-0.074-0.07-0.109c-0.05-0.072-0.101-0.145-0.156-0.215
			c-0.055-0.069-0.108-0.139-0.167-0.204c-0.057-0.066-0.114-0.129-0.173-0.188c-0.056-0.061-0.115-0.116-0.169-0.168
			c-0.056-0.052-0.11-0.1-0.16-0.143c-0.102-0.085-0.188-0.152-0.253-0.197c-0.063-0.044-0.102-0.067-0.102-0.067
			s0.024,0.037,0.069,0.1c0.023,0.031,0.051,0.069,0.082,0.111c0.033,0.043,0.068,0.092,0.108,0.144
			c0.079,0.104,0.173,0.224,0.273,0.352c0.05,0.063,0.101,0.129,0.153,0.196c0.052,0.067,0.105,0.135,0.157,0.203
			C190.249,125.063,190.297,125.134,190.351,125.2"/>
		<path fill="#1E4077" d="M191.273,125.245c0.029,0.046,0.056,0.093,0.083,0.138c0.026,0.046,0.053,0.092,0.078,0.137
			c0.024,0.045,0.048,0.09,0.072,0.134c0.021,0.044,0.044,0.087,0.065,0.129c0.021,0.043,0.04,0.085,0.06,0.125
			c0.018,0.041,0.035,0.08,0.052,0.118c0.03,0.077,0.06,0.148,0.081,0.212c0.023,0.064,0.039,0.121,0.054,0.167
			c0.026,0.096,0.041,0.15,0.041,0.15s0.001-0.014,0.002-0.04c0-0.027,0.005-0.067,0.002-0.116c-0.003-0.05-0.003-0.112-0.014-0.181
			c-0.008-0.07-0.022-0.148-0.042-0.232c-0.01-0.042-0.021-0.085-0.033-0.131c-0.014-0.044-0.028-0.09-0.044-0.137
			s-0.035-0.094-0.053-0.143c-0.02-0.048-0.041-0.096-0.063-0.146c-0.045-0.098-0.095-0.197-0.15-0.296
			c-0.055-0.098-0.115-0.196-0.178-0.291c-0.126-0.191-0.266-0.372-0.405-0.534c-0.069-0.081-0.139-0.157-0.206-0.227
			c-0.068-0.071-0.135-0.135-0.197-0.194c-0.123-0.117-0.232-0.207-0.312-0.268c-0.078-0.062-0.126-0.093-0.126-0.093
			s0.137,0.179,0.342,0.448c0.101,0.135,0.219,0.291,0.342,0.459c0.03,0.042,0.062,0.085,0.093,0.129
			c0.031,0.043,0.063,0.088,0.095,0.132c0.062,0.09,0.126,0.181,0.186,0.273C191.159,125.059,191.217,125.153,191.273,125.245"/>
		<path fill="#1E4077" d="M191.968,125.215c0.017,0.027,0.026,0.056,0.04,0.083c0.015,0.028,0.026,0.055,0.04,0.081
			c0.013,0.026,0.022,0.054,0.034,0.079c0.021,0.052,0.046,0.1,0.061,0.147c0.019,0.046,0.034,0.089,0.051,0.127
			c0.013,0.039,0.023,0.073,0.033,0.101c0.02,0.056,0.033,0.09,0.033,0.09s0.006-0.034,0.013-0.095
			c0.002-0.031,0.007-0.068,0.008-0.111c-0.002-0.042-0.004-0.09-0.008-0.143c-0.004-0.053-0.017-0.108-0.027-0.168
			c-0.006-0.029-0.011-0.06-0.021-0.09c-0.008-0.031-0.019-0.061-0.027-0.093c-0.02-0.063-0.046-0.126-0.074-0.189
			c-0.026-0.064-0.063-0.124-0.095-0.186c-0.034-0.061-0.073-0.119-0.111-0.176c-0.021-0.027-0.041-0.055-0.062-0.081
			c-0.021-0.027-0.04-0.053-0.063-0.077c-0.084-0.1-0.171-0.185-0.25-0.253c-0.039-0.034-0.077-0.062-0.111-0.087
			c-0.033-0.025-0.064-0.046-0.091-0.062c-0.051-0.033-0.083-0.047-0.083-0.047s0.005,0.007,0.015,0.021
			c0.009,0.013,0.021,0.034,0.037,0.058c0.033,0.05,0.079,0.12,0.136,0.205c0.027,0.042,0.058,0.087,0.089,0.135
			c0.032,0.047,0.063,0.098,0.098,0.149c0.034,0.052,0.065,0.107,0.102,0.161c0.03,0.056,0.066,0.11,0.098,0.167
			s0.066,0.113,0.094,0.17C191.938,125.159,191.953,125.188,191.968,125.215"/>
		<path fill="#1E4077" d="M192.159,126.348c0.009,0.042,0.019,0.086,0.028,0.131c0.01,0.046,0.02,0.092,0.029,0.14
			c0.011,0.047,0.019,0.096,0.029,0.144c0.009,0.048,0.017,0.097,0.028,0.144c0.007,0.048,0.016,0.095,0.025,0.141
			c0.007,0.046,0.016,0.091,0.024,0.133s0.014,0.083,0.021,0.12c0.009,0.038,0.018,0.073,0.022,0.104
			c0.006,0.031,0.013,0.058,0.018,0.08c0.012,0.045,0.021,0.072,0.021,0.072s0.011-0.025,0.024-0.07
			c0.008-0.022,0.018-0.049,0.025-0.08c0.01-0.032,0.015-0.068,0.022-0.107c0.006-0.039,0.014-0.082,0.017-0.127
			c0.003-0.046,0.005-0.094,0.006-0.144c-0.002-0.049-0.004-0.101-0.009-0.153c-0.006-0.052-0.014-0.105-0.023-0.157
			c-0.013-0.052-0.021-0.104-0.039-0.154c-0.015-0.05-0.03-0.099-0.051-0.145c-0.018-0.047-0.039-0.091-0.06-0.131
			c-0.021-0.041-0.044-0.078-0.066-0.112c-0.021-0.033-0.044-0.063-0.064-0.088c-0.021-0.026-0.041-0.047-0.057-0.064
			c-0.034-0.033-0.056-0.049-0.056-0.049s0.022,0.101,0.057,0.253C192.142,126.266,192.15,126.306,192.159,126.348"/>
		<path fill="#1E4077" d="M192.597,125.933c0.021,0.063,0.03,0.128,0.046,0.192c0.015,0.065,0.028,0.129,0.043,0.192
			c0.007,0.032,0.015,0.063,0.021,0.095c0.006,0.032,0.011,0.064,0.017,0.095c0.012,0.063,0.022,0.125,0.033,0.187
			c0.013,0.061,0.023,0.121,0.034,0.18c0.009,0.06,0.017,0.118,0.025,0.174c0.017,0.114,0.034,0.221,0.051,0.32
			c0.009,0.05,0.013,0.098,0.019,0.143c0.007,0.045,0.013,0.089,0.018,0.129c0.011,0.081,0.021,0.152,0.029,0.21
			c0.019,0.117,0.031,0.184,0.031,0.184s0.007-0.067,0.016-0.185c0.003-0.059,0.008-0.131,0.011-0.213
			c0.003-0.083,0.011-0.176,0.007-0.277c-0.002-0.102-0.005-0.212-0.01-0.328c-0.003-0.059-0.006-0.119-0.009-0.18
			c-0.008-0.061-0.015-0.123-0.021-0.186c-0.008-0.063-0.015-0.128-0.022-0.193c-0.005-0.032-0.009-0.065-0.013-0.098
			c-0.006-0.033-0.013-0.066-0.019-0.099c-0.014-0.066-0.026-0.132-0.04-0.199c-0.015-0.066-0.024-0.134-0.045-0.199
			c-0.019-0.066-0.037-0.132-0.057-0.198c-0.018-0.065-0.036-0.131-0.062-0.194c-0.049-0.126-0.091-0.252-0.152-0.367
			c-0.028-0.058-0.055-0.116-0.085-0.171c-0.032-0.053-0.063-0.105-0.094-0.156c-0.03-0.051-0.065-0.098-0.099-0.142
			c-0.035-0.044-0.064-0.09-0.102-0.127c-0.035-0.038-0.067-0.076-0.101-0.11c-0.035-0.031-0.069-0.061-0.101-0.089
			c-0.029-0.029-0.064-0.051-0.094-0.072c-0.015-0.01-0.028-0.021-0.043-0.03c-0.014-0.008-0.028-0.016-0.041-0.024
			c-0.026-0.015-0.049-0.029-0.071-0.037c-0.021-0.009-0.038-0.019-0.054-0.023c-0.03-0.011-0.047-0.015-0.047-0.015
			s0.015,0.009,0.041,0.026c0.025,0.018,0.062,0.046,0.104,0.086c0.011,0.009,0.022,0.02,0.034,0.03
			c0.012,0.011,0.022,0.024,0.034,0.037c0.023,0.027,0.051,0.05,0.075,0.083c0.024,0.032,0.051,0.065,0.079,0.1
			c0.024,0.038,0.052,0.076,0.079,0.116c0.029,0.039,0.051,0.087,0.078,0.132c0.025,0.046,0.055,0.092,0.077,0.144
			c0.024,0.05,0.05,0.102,0.075,0.155c0.023,0.054,0.045,0.111,0.068,0.168c0.05,0.111,0.084,0.235,0.127,0.356
			c0.022,0.061,0.037,0.125,0.055,0.188C192.563,125.806,192.58,125.87,192.597,125.933"/>
		<path fill="#1E4077" d="M183.847,125.064l0.024-0.078c0.009-0.026,0.019-0.051,0.027-0.076c0.019-0.051,0.035-0.102,0.056-0.151
			c0.019-0.048,0.039-0.097,0.059-0.144c0.019-0.048,0.041-0.092,0.062-0.137c0.02-0.045,0.04-0.089,0.062-0.13
			s0.042-0.082,0.063-0.121c0.021-0.038,0.042-0.075,0.061-0.11c0.041-0.07,0.079-0.134,0.115-0.188
			c0.016-0.025,0.03-0.047,0.044-0.068c0.043,0.028,0.089,0.052,0.138,0.071c0.064,0.024,0.131,0.038,0.197,0.043l0.05,0.002
			c0.002,0,0.032-0.001,0.023-0.001h0.009l0.017-0.001l0.009-0.001c0.003,0,0.008,0,0.015-0.001
			c0.012-0.002,0.023-0.004,0.035-0.006s0.023-0.005,0.036-0.007l0.031-0.011c0.021-0.007,0.042-0.015,0.063-0.027
			c0.021-0.01,0.04-0.023,0.059-0.038c0.02-0.014,0.036-0.029,0.051-0.046c0.018-0.016,0.03-0.033,0.042-0.05
			c0.049-0.068,0.071-0.131,0.091-0.187c0.017-0.055,0.029-0.106,0.041-0.153c0.021-0.093,0.041-0.173,0.068-0.241
			c0.028-0.067,0.063-0.12,0.107-0.161c0.044-0.042,0.102-0.074,0.173-0.097c0.018-0.005,0.034-0.013,0.054-0.016
			c0.019-0.004,0.04-0.01,0.055-0.013l0.143-0.025l0.128-0.015l0.132-0.008c0.173-0.004,0.341,0.019,0.482,0.079
			c0.068,0.033,0.131,0.074,0.188,0.124c0.054,0.053,0.104,0.112,0.144,0.183c0.011,0.016,0.019,0.036,0.027,0.054
			c0.01,0.019,0.021,0.036,0.027,0.056l0.052,0.131c0.003,0.01,0.012,0.027,0.02,0.043c0.007,0.016,0.015,0.033,0.022,0.047
			c0.018,0.028,0.032,0.056,0.053,0.083c0.036,0.054,0.084,0.105,0.136,0.148c0.103,0.088,0.229,0.143,0.352,0.17
			c0.123,0.027,0.242,0.029,0.356,0.021c0.227-0.02,0.436-0.081,0.633-0.16c0.098-0.039,0.194-0.083,0.287-0.131l0.07-0.04
			l0.075-0.047c0.045-0.031,0.089-0.061,0.131-0.093c0.166-0.125,0.313-0.254,0.464-0.374c0.148-0.119,0.299-0.232,0.449-0.317
			c0.15-0.086,0.306-0.135,0.424-0.118c0.059,0.008,0.111,0.031,0.166,0.069c0.053,0.037,0.101,0.097,0.146,0.159
			c0.021,0.035,0.045,0.066,0.064,0.104l0.064,0.121l0.033,0.063l0.043,0.071c0.028,0.048,0.06,0.091,0.091,0.135
			c0.068,0.087,0.145,0.173,0.249,0.245c0.053,0.036,0.112,0.069,0.183,0.09c0.017,0.005,0.033,0.011,0.052,0.015
			c0.018,0.003,0.037,0.006,0.056,0.008c0.036,0.007,0.076,0.003,0.114,0.002c0.105-0.011,0.201-0.053,0.278-0.108
			c0.018,0.023,0.035,0.048,0.055,0.076c0.02,0.029,0.041,0.058,0.063,0.09c0.021,0.033,0.042,0.068,0.065,0.103
			c0.024,0.036,0.045,0.075,0.068,0.115c0.022,0.04,0.049,0.081,0.069,0.125c0.045,0.087,0.096,0.179,0.138,0.278
			c0.021,0.05,0.046,0.099,0.065,0.151c0.021,0.051,0.041,0.104,0.062,0.157c0.01,0.026,0.021,0.053,0.03,0.08l0.027,0.082
			c0.017,0.055,0.035,0.11,0.053,0.165c0.033,0.111,0.061,0.224,0.09,0.335c0.022,0.112,0.044,0.223,0.065,0.33
			c0.016,0.108,0.029,0.213,0.043,0.313c0.008,0.05,0.011,0.099,0.014,0.146c0.003,0.048,0.007,0.093,0.01,0.137
			c0.005,0.088,0.014,0.169,0.011,0.24c0,0.072,0.001,0.135,0.001,0.186c0,0.103,0,0.162,0,0.162s0.005-0.058,0.015-0.161
			c0.005-0.052,0.011-0.114,0.019-0.186c0.009-0.072,0.008-0.153,0.012-0.242c0.001-0.044,0.002-0.09,0.004-0.138
			c0.002-0.048,0.003-0.098,0-0.149c-0.004-0.102-0.007-0.21-0.012-0.321c-0.012-0.112-0.023-0.227-0.034-0.344
			c-0.021-0.115-0.036-0.234-0.059-0.352c-0.014-0.059-0.026-0.117-0.039-0.176c-0.007-0.029-0.014-0.058-0.02-0.087
			c-0.007-0.029-0.016-0.057-0.023-0.086c-0.017-0.057-0.032-0.114-0.049-0.17c-0.016-0.056-0.035-0.11-0.054-0.163
			c-0.034-0.109-0.077-0.21-0.115-0.307c-0.018-0.049-0.042-0.094-0.061-0.139c-0.021-0.045-0.039-0.089-0.062-0.129
			c-0.021-0.041-0.041-0.08-0.06-0.118c-0.019-0.037-0.04-0.071-0.058-0.104c-0.036-0.066-0.073-0.121-0.102-0.167
			c0-0.001-0.001-0.002-0.001-0.002c0.021-0.038,0.038-0.077,0.054-0.116c0.081-0.213,0.1-0.44,0.046-0.663
			c-0.015-0.055-0.032-0.11-0.058-0.163c-0.011-0.027-0.025-0.052-0.04-0.078l-0.018-0.031l-0.018-0.029l-0.017-0.028l-0.012-0.023
			c-0.01-0.015-0.018-0.031-0.026-0.05c-0.018-0.035-0.035-0.072-0.051-0.109c-0.066-0.15-0.124-0.309-0.186-0.469
			c-0.122-0.319-0.252-0.644-0.446-0.935c-0.098-0.145-0.213-0.28-0.346-0.395c-0.133-0.115-0.281-0.207-0.438-0.273
			c-0.038-0.018-0.079-0.03-0.118-0.045l-0.014-0.005l-0.003-0.001l-0.026-0.01l-0.051-0.019c-0.021-0.007-0.025-0.013-0.036-0.018
			c-0.01-0.006-0.021-0.011-0.031-0.017c-0.021-0.012-0.044-0.03-0.066-0.044c-0.087-0.067-0.158-0.157-0.216-0.257
			c-0.059-0.101-0.102-0.213-0.138-0.325c-0.035-0.113-0.062-0.227-0.082-0.34c-0.021-0.113-0.037-0.225-0.049-0.333
			c-0.014-0.109-0.022-0.214-0.033-0.316c-0.018-0.206-0.034-0.395-0.049-0.566c-0.015-0.172-0.033-0.326-0.05-0.461
			c-0.018-0.134-0.038-0.249-0.055-0.341c-0.037-0.186-0.07-0.281-0.07-0.281s-0.012,0.099-0.031,0.285
			c-0.019,0.185-0.053,0.455-0.073,0.803c-0.019,0.348-0.029,0.774,0.047,1.272c0.02,0.124,0.045,0.253,0.083,0.386
			c0.038,0.132,0.085,0.269,0.159,0.405c0.073,0.135,0.171,0.272,0.308,0.382c0.035,0.026,0.069,0.052,0.109,0.077l0.064,0.035
			c0.021,0.011,0.046,0.025,0.06,0.03l0.051,0.02l0.025,0.011l0.034,0.012c0.03,0.012,0.06,0.022,0.089,0.036
			c0.116,0.052,0.226,0.122,0.325,0.211c0.099,0.09,0.188,0.196,0.267,0.317c0.16,0.243,0.278,0.537,0.395,0.852
			c0.059,0.159,0.117,0.323,0.192,0.493c0.02,0.042,0.038,0.085,0.061,0.128c0.01,0.021,0.021,0.044,0.035,0.067l0.019,0.034
			l0.017,0.029l0.018,0.029l0.007,0.011l0.002,0.005l0.006,0.01c0.007,0.013,0.016,0.025,0.021,0.04
			c0.013,0.027,0.022,0.057,0.03,0.088c0.032,0.124,0.021,0.272-0.027,0.399c-0.024,0.064-0.06,0.121-0.098,0.161
			c-0.038,0.042-0.074,0.057-0.104,0.062c-0.029,0.002-0.069-0.007-0.12-0.041c-0.049-0.033-0.101-0.087-0.149-0.148
			c-0.022-0.033-0.048-0.065-0.067-0.099l-0.031-0.05l-0.033-0.062l-0.07-0.13c-0.024-0.047-0.058-0.092-0.088-0.138
			c-0.066-0.091-0.14-0.182-0.243-0.256c-0.103-0.075-0.23-0.13-0.362-0.146c-0.132-0.018-0.26,0.001-0.373,0.035
			c-0.114,0.034-0.215,0.082-0.309,0.135c-0.188,0.107-0.351,0.233-0.507,0.358c-0.154,0.126-0.304,0.255-0.451,0.367
			c-0.037,0.029-0.074,0.055-0.11,0.08l-0.049,0.031l-0.06,0.033c-0.082,0.043-0.165,0.082-0.25,0.117
			c-0.169,0.068-0.344,0.118-0.511,0.132c-0.167,0.014-0.319-0.017-0.411-0.097c-0.023-0.02-0.045-0.043-0.063-0.07
			c-0.011-0.013-0.019-0.028-0.026-0.043c-0.004-0.007-0.007-0.013-0.01-0.019c-0.003-0.006-0.006-0.011-0.011-0.025l-0.057-0.143
			c-0.01-0.027-0.024-0.052-0.037-0.078c-0.013-0.025-0.023-0.052-0.04-0.076c-0.057-0.102-0.132-0.196-0.219-0.281
			c-0.089-0.082-0.192-0.149-0.301-0.199c-0.219-0.097-0.449-0.123-0.663-0.119c-0.053,0.003-0.106,0.006-0.159,0.009l-0.161,0.019
			l-0.143,0.024l-0.009,0.002l-0.016,0.003l-0.021,0.005l-0.042,0.009c-0.028,0.006-0.058,0.017-0.085,0.025
			c-0.112,0.037-0.229,0.096-0.325,0.186c-0.098,0.087-0.168,0.201-0.213,0.309c-0.046,0.109-0.07,0.214-0.093,0.305
			c-0.012,0.045-0.021,0.087-0.033,0.121c-0.011,0.033-0.023,0.059-0.03,0.067c-0.008,0.009-0.002,0.003-0.006,0.005l-0.001,0.001
			l0.002,0.001h-0.004l-0.009,0.001l-0.018,0.001h-0.004l-0.02-0.001c-0.054-0.005-0.099-0.022-0.145-0.056
			c-0.091-0.068-0.169-0.205-0.221-0.354c-0.052-0.151-0.087-0.316-0.11-0.482c-0.022-0.167-0.035-0.336-0.04-0.504
			c-0.003-0.084-0.003-0.169-0.003-0.25c0.001-0.043,0.001-0.086,0.002-0.128c0.001-0.038,0.003-0.076,0.005-0.113
			c0.024-0.301,0.128-0.579,0.298-0.805c0.166-0.228,0.389-0.408,0.626-0.538c0.117-0.065,0.24-0.119,0.362-0.159
			c0.062-0.019,0.122-0.036,0.181-0.048l0.039-0.008c0.013-0.002,0.032-0.004,0.049-0.007l0.041-0.007
			c0.017-0.004,0.033-0.008,0.049-0.013c0.031-0.013,0.063-0.026,0.09-0.045c0.053-0.036,0.092-0.078,0.121-0.119
			c0.031-0.042,0.05-0.081,0.069-0.12c0.033-0.077,0.055-0.149,0.072-0.219c0.033-0.139,0.051-0.268,0.064-0.392
			c0.05-0.494,0.051-0.911,0.049-1.257c-0.003-0.345-0.011-0.615-0.017-0.802c-0.004-0.094-0.008-0.165-0.009-0.214
			c-0.002-0.049-0.004-0.074-0.004-0.074s-0.01,0.023-0.026,0.069c-0.019,0.046-0.04,0.115-0.068,0.205
			c-0.054,0.181-0.117,0.451-0.167,0.797c-0.024,0.172-0.045,0.363-0.065,0.57c-0.019,0.207-0.034,0.43-0.065,0.661
			c-0.016,0.115-0.035,0.232-0.064,0.342c-0.016,0.054-0.032,0.106-0.054,0.149c-0.02,0.042-0.046,0.07-0.052,0.072h-0.001
			l-0.001-0.001v0.001l-0.009,0.001c-0.019,0.002-0.032,0.003-0.054,0.006c-0.021,0.003-0.043,0.006-0.063,0.01
			c-0.078,0.013-0.153,0.033-0.228,0.056c-0.148,0.045-0.295,0.106-0.437,0.181c-0.144,0.075-0.282,0.165-0.413,0.272
			s-0.255,0.231-0.362,0.375c-0.217,0.284-0.355,0.648-0.388,1.024c-0.003,0.048-0.005,0.095-0.008,0.143
			c-0.001,0.043-0.001,0.086-0.002,0.129c0,0.09,0,0.179,0.003,0.269c0.006,0.181,0.019,0.364,0.044,0.551
			c0.026,0.186,0.063,0.377,0.133,0.569c0.035,0.096,0.078,0.193,0.137,0.288c0.008,0.014,0.018,0.027,0.026,0.04
			c-0.026,0.044-0.053,0.096-0.084,0.155c-0.032,0.063-0.066,0.135-0.103,0.214c-0.017,0.04-0.034,0.081-0.053,0.124
			c-0.017,0.044-0.035,0.088-0.052,0.134c-0.02,0.046-0.035,0.094-0.052,0.143c-0.017,0.05-0.035,0.099-0.049,0.151
			c-0.016,0.051-0.031,0.104-0.047,0.156c-0.015,0.054-0.027,0.108-0.041,0.162c-0.007,0.028-0.014,0.055-0.021,0.082l-0.017,0.084
			c-0.012,0.055-0.022,0.111-0.033,0.167c-0.008,0.056-0.018,0.112-0.025,0.168c-0.009,0.056-0.018,0.111-0.021,0.167
			c-0.012,0.111-0.024,0.22-0.027,0.326c-0.003,0.052-0.006,0.104-0.008,0.155c-0.002,0.051-0.001,0.101-0.001,0.149
			c0,0.097-0.002,0.188,0.005,0.272c0.004,0.084,0.008,0.161,0.012,0.23c0.007,0.067,0.013,0.127,0.019,0.175
			c0.01,0.098,0.016,0.153,0.016,0.153s0-0.056,0-0.153c0-0.049,0-0.108-0.001-0.176c0.004-0.068,0.008-0.145,0.012-0.228
			c0.002-0.083,0.013-0.173,0.022-0.268c0.005-0.048,0.009-0.096,0.016-0.146c0.007-0.049,0.015-0.1,0.023-0.151
			c0.014-0.103,0.037-0.208,0.059-0.314c0.01-0.053,0.023-0.106,0.037-0.159s0.028-0.107,0.042-0.16
			C183.814,125.169,183.831,125.116,183.847,125.064"/>
		<path fill="#1E4077" d="M190.829,116.575c-0.037-0.033-0.073-0.065-0.106-0.097c-0.068-0.063-0.129-0.121-0.184-0.173
			c-0.056-0.052-0.104-0.095-0.145-0.133c-0.08-0.074-0.127-0.114-0.127-0.114s0.032,0.053,0.093,0.143
			c0.03,0.046,0.068,0.1,0.113,0.162c0.043,0.062,0.095,0.13,0.153,0.203c0.058,0.074,0.123,0.152,0.193,0.233
			c0.073,0.079,0.15,0.163,0.237,0.244c0.021,0.02,0.042,0.041,0.064,0.063c0.021,0.02,0.046,0.039,0.068,0.06
			c0.046,0.039,0.092,0.081,0.142,0.119c0.05,0.037,0.101,0.075,0.15,0.113c0.051,0.037,0.106,0.07,0.159,0.104
			c0.027,0.017,0.053,0.035,0.081,0.05l0.084,0.046l0.083,0.045l0.042,0.022l0.043,0.019c0.057,0.026,0.114,0.051,0.171,0.076
			c0.056,0.023,0.114,0.041,0.171,0.061c0.111,0.042,0.226,0.064,0.33,0.091c0.106,0.023,0.209,0.035,0.302,0.049
			c0.095,0.01,0.181,0.013,0.257,0.018c0.019,0.001,0.037,0.001,0.055,0.002c0.018,0,0.036,0,0.052-0.001
			c0.033-0.001,0.063-0.002,0.091-0.003c0.109-0.004,0.171-0.009,0.171-0.009s-0.061-0.015-0.167-0.036
			c-0.026-0.005-0.056-0.011-0.088-0.017c-0.016-0.003-0.033-0.007-0.05-0.01c-0.017-0.004-0.035-0.008-0.053-0.013
			c-0.072-0.019-0.154-0.037-0.243-0.059c-0.044-0.013-0.089-0.027-0.136-0.042c-0.047-0.015-0.098-0.025-0.146-0.044
			c-0.049-0.018-0.099-0.036-0.149-0.054c-0.026-0.01-0.053-0.017-0.078-0.028c-0.025-0.011-0.051-0.022-0.077-0.033
			c-0.051-0.023-0.105-0.043-0.157-0.068c-0.052-0.026-0.104-0.052-0.157-0.078c-0.054-0.023-0.103-0.057-0.155-0.085l-0.078-0.044
			c-0.026-0.015-0.051-0.032-0.076-0.048c-0.05-0.033-0.103-0.063-0.151-0.097c-0.049-0.035-0.098-0.069-0.146-0.104
			c-0.094-0.072-0.188-0.141-0.274-0.215c-0.089-0.072-0.171-0.146-0.25-0.215C190.902,116.644,190.865,116.608,190.829,116.575"/>
		<path fill="#1E4077" d="M182.828,117.968c0,0,0.063,0.008,0.175,0.018c0.056,0.002,0.124,0.007,0.202,0.005
			c0.039-0.001,0.081-0.003,0.124-0.004c0.044-0.002,0.09-0.008,0.139-0.013c0.097-0.01,0.2-0.026,0.309-0.051
			c0.109-0.023,0.222-0.056,0.337-0.096c0.115-0.041,0.232-0.088,0.347-0.144c0.115-0.055,0.228-0.121,0.339-0.188
			c0.107-0.071,0.216-0.144,0.314-0.222c0.101-0.079,0.196-0.159,0.284-0.242c0.088-0.081,0.17-0.164,0.245-0.244
			s0.143-0.159,0.204-0.232c0.123-0.146,0.218-0.273,0.286-0.36c0.067-0.087,0.107-0.137,0.107-0.137s-0.013,0.009-0.037,0.026
			c-0.023,0.018-0.06,0.044-0.103,0.079c-0.087,0.071-0.206,0.176-0.348,0.301c-0.07,0.062-0.147,0.129-0.229,0.2
			c-0.081,0.07-0.168,0.142-0.259,0.215c-0.09,0.073-0.187,0.146-0.284,0.217c-0.098,0.072-0.201,0.14-0.304,0.206
			c-0.105,0.065-0.21,0.128-0.317,0.184c-0.053,0.029-0.108,0.054-0.16,0.081c-0.054,0.025-0.106,0.049-0.16,0.072
			c-0.105,0.045-0.209,0.086-0.31,0.119c-0.05,0.017-0.099,0.034-0.147,0.048c-0.048,0.014-0.094,0.03-0.139,0.04
			c-0.09,0.023-0.174,0.042-0.249,0.058c-0.075,0.015-0.141,0.027-0.195,0.037C182.892,117.956,182.828,117.968,182.828,117.968"/>
		<path fill="#1E4077" d="M187.82,112.876c0.038-0.037,0.075-0.074,0.11-0.113l0.054-0.058c0.018-0.02,0.036-0.039,0.053-0.059
			c0.034-0.041,0.068-0.081,0.101-0.122c0.034-0.041,0.064-0.085,0.096-0.128l0.047-0.064c0.011-0.016,0.021-0.032,0.032-0.049
			c0.008,0.013,0.016,0.025,0.023,0.038c0.021,0.03,0.042,0.06,0.063,0.09c0.021,0.03,0.042,0.06,0.063,0.089
			c0.088,0.118,0.18,0.233,0.28,0.342c0.024,0.027,0.05,0.054,0.076,0.08l0.079,0.079c0.054,0.05,0.107,0.101,0.167,0.146
			c0.028,0.024,0.058,0.047,0.089,0.068c0.031,0.02,0.061,0.043,0.093,0.062c0.033,0.018,0.065,0.036,0.098,0.053
			c0.035,0.015,0.069,0.029,0.104,0.042c-0.027-0.026-0.055-0.05-0.08-0.074l-0.075-0.078c-0.025-0.025-0.048-0.053-0.072-0.079
			c-0.023-0.027-0.045-0.055-0.067-0.083c-0.023-0.027-0.046-0.054-0.067-0.083l-0.065-0.084l-0.064-0.086
			c-0.021-0.028-0.041-0.058-0.063-0.086c-0.021-0.029-0.042-0.057-0.062-0.087l-0.063-0.087l-0.121-0.175l-0.122-0.177
			l-0.119-0.176l-0.104-0.153l-0.088,0.158c-0.024,0.044-0.05,0.088-0.073,0.133c-0.013,0.022-0.022,0.045-0.036,0.066l-0.039,0.066
			c-0.026,0.044-0.051,0.089-0.077,0.133c-0.027,0.043-0.055,0.087-0.08,0.131l-0.163,0.265c-0.027,0.045-0.055,0.089-0.081,0.134
			c-0.027,0.045-0.054,0.09-0.081,0.136c0.042-0.033,0.083-0.066,0.122-0.102C187.745,112.949,187.783,112.914,187.82,112.876"/>
		<path fill="#1E4077" d="M193.813,145.204c-0.015-0.096-0.028-0.19-0.046-0.277c-0.032-0.177-0.067-0.337-0.097-0.479
			c-0.028-0.141-0.054-0.265-0.072-0.367c-0.02-0.102-0.032-0.183-0.042-0.238c-0.009-0.055-0.014-0.085-0.014-0.085
			s0.001,0.03,0.002,0.086c0.002,0.056,0.001,0.138,0.009,0.242c0.006,0.105,0.017,0.231,0.031,0.376
			c0.016,0.144,0.034,0.306,0.053,0.483c0.02,0.177,0.035,0.367,0.033,0.565c-0.003,0.198-0.029,0.404-0.089,0.607
			c-0.018,0.05-0.034,0.101-0.051,0.152c-0.022,0.05-0.044,0.1-0.066,0.15c-0.01,0.025-0.023,0.049-0.037,0.073l-0.039,0.072
			l-0.038,0.072l-0.047,0.074c-0.118,0.196-0.259,0.375-0.426,0.525l-0.063,0.057l-0.065,0.05c-0.043,0.036-0.091,0.064-0.137,0.094
			c-0.097,0.055-0.194,0.105-0.3,0.138c-0.206,0.071-0.425,0.094-0.638,0.087c-0.213-0.009-0.42-0.045-0.614-0.094
			c-0.192-0.049-0.375-0.108-0.541-0.168c-0.332-0.122-0.605-0.24-0.798-0.319c-0.096-0.04-0.173-0.07-0.225-0.09
			c-0.052-0.021-0.08-0.032-0.08-0.032s0.104,0.059,0.285,0.163c0.091,0.051,0.201,0.113,0.33,0.181
			c0.128,0.068,0.273,0.144,0.438,0.218c0.163,0.074,0.345,0.149,0.544,0.21c0.2,0.061,0.417,0.115,0.649,0.13
			c0.231,0.015,0.479,0.002,0.718-0.078c0.12-0.036,0.234-0.092,0.344-0.154c0.054-0.034,0.108-0.065,0.157-0.105l0.076-0.057
			l0.071-0.062c0.185-0.17,0.338-0.372,0.459-0.577l0.046-0.075l0.043-0.082l0.041-0.082c0.014-0.027,0.027-0.054,0.038-0.082
			c0.021-0.056,0.044-0.111,0.065-0.166c0.018-0.057,0.034-0.113,0.051-0.169c0.061-0.226,0.075-0.454,0.066-0.664
			C193.838,145.402,193.826,145.301,193.813,145.204"/>
		<path fill="#1E4077" d="M195.619,119.661c-0.007-0.036-0.015-0.066-0.022-0.09c-0.014-0.047-0.021-0.072-0.021-0.072
			s0.005,0.025,0.017,0.074c0.006,0.024,0.011,0.054,0.016,0.09c0.005,0.036,0.011,0.078,0.015,0.126
			c0.011,0.095,0.012,0.213,0.009,0.351c-0.006,0.138-0.021,0.296-0.044,0.473c-0.049,0.352-0.145,0.775-0.272,1.254
			c-0.033,0.12-0.069,0.243-0.101,0.375c-0.033,0.131-0.061,0.267-0.084,0.407c-0.049,0.28-0.075,0.578-0.09,0.888
			c-0.014,0.311-0.015,0.634-0.006,0.967c0.01,0.333,0.03,0.676,0.047,1.026c0.01,0.176,0.018,0.353,0.022,0.531
			c0.005,0.176,0.006,0.361,0.009,0.545c0.003,0.37,0.015,0.747,0.021,1.13c0.007,0.384,0.012,0.773,0.014,1.166
			c0,0.394,0,0.792-0.006,1.193c-0.011,0.802-0.046,0.501-0.118,1.31c-0.019,0.201-0.037,0.404-0.059,0.605l-0.035,0.3l-0.019,0.15
			l-0.021,0.151c-0.03,0.202-0.06,0.403-0.088,0.603c-0.015,0.102-0.029,0.203-0.043,0.304c-0.014,0.102-0.025,0.203-0.037,0.304
			c-0.096,0.808-0.129,1.608-0.136,2.38c-0.01,0.772,0.021,1.516,0.046,2.218c0.005,0.176,0.011,0.349,0.016,0.519
			c0.004,0.17,0.008,0.338,0.012,0.503c0.001,0.082,0.003,0.163,0.004,0.244c0,0.081,0,0.161,0,0.241s0,0.159-0.001,0.238
			c0.001,0.08,0.002,0.159,0.006,0.237c0.021,0.624,0.127,1.185,0.227,1.674c0.101,0.49,0.2,0.912,0.245,1.265
			c0.021,0.176,0.032,0.334,0.031,0.472c-0.002,0.138-0.017,0.255-0.036,0.348c-0.02,0.094-0.042,0.163-0.06,0.21
			c-0.009,0.023-0.016,0.04-0.021,0.052c-0.005,0.011-0.008,0.017-0.008,0.017s0.003-0.005,0.009-0.017
			c0.006-0.011,0.015-0.027,0.024-0.05c0.021-0.045,0.05-0.114,0.076-0.207c0.056-0.185,0.09-0.472,0.063-0.833
			c-0.023-0.361-0.094-0.793-0.171-1.284c-0.075-0.492-0.148-1.047-0.147-1.651c0-0.076,0.002-0.152,0.005-0.229
			c0.003-0.078,0.007-0.157,0.011-0.236c0.003-0.08,0.006-0.161,0.01-0.242c0.002-0.082,0.004-0.165,0.006-0.248
			c0.007-0.334,0.005-0.676,0.003-1.029c-0.004-0.704-0.009-1.443,0.01-2.206c0.008-0.381,0.028-0.768,0.055-1.159
			c0.008-0.097,0.016-0.195,0.023-0.293c0.007-0.098,0.015-0.197,0.027-0.295c0.02-0.197,0.037-0.395,0.063-0.593
			c0.013-0.099,0.024-0.198,0.037-0.297c0.016-0.099,0.03-0.198,0.044-0.297c0.031-0.201,0.062-0.402,0.091-0.604l0.023-0.152
			l0.019-0.154l0.038-0.308c0.024-0.205,0.043-0.41,0.064-0.616c0.069-0.822,0.098-0.531,0.105-1.34
			c0.003-0.203,0-0.404,0.001-0.605c-0.004-0.2-0.007-0.399-0.01-0.597c-0.009-0.396-0.02-0.787-0.035-1.171
			c-0.014-0.384-0.026-0.761-0.043-1.13c-0.009-0.184-0.014-0.365-0.024-0.55c-0.012-0.182-0.024-0.36-0.038-0.536
			c-0.057-0.703-0.116-1.36-0.112-1.967c0.001-0.304,0.019-0.594,0.05-0.867c0.017-0.137,0.036-0.27,0.061-0.398
			c0.023-0.127,0.054-0.253,0.081-0.375c0.106-0.49,0.175-0.923,0.201-1.283c0.029-0.36,0.01-0.645-0.022-0.835
			C195.638,119.738,195.628,119.697,195.619,119.661"/>
		<path fill="#1E4077" d="M183.3,140.673c-0.053-0.38-0.11-0.809-0.169-1.277c-0.058-0.468-0.116-0.976-0.169-1.512
			c-0.051-0.537-0.092-1.104-0.109-1.687c-0.007-0.291-0.007-0.587,0.016-0.88c0.01-0.147,0.028-0.295,0.052-0.429
			c0.006-0.036,0.015-0.075,0.022-0.112l0.023-0.115c0.008-0.041,0.019-0.085,0.023-0.125l0.015-0.123
			c0.033-0.324,0.035-0.641,0.032-0.959c-0.004-0.318-0.019-0.634-0.033-0.951c-0.035-0.632-0.082-0.147-0.134-0.766
			c-0.052-0.619-0.113-1.227-0.167-1.815c-0.058-0.588-0.112-1.156-0.164-1.695c-0.025-0.269-0.05-0.531-0.074-0.784
			c-0.024-0.254-0.047-0.499-0.068-0.734c-0.019-0.235-0.038-0.46-0.056-0.675c-0.018-0.214-0.033-0.417-0.047-0.609
			c-0.025-0.382-0.047-0.716-0.059-0.991c-0.006-0.138-0.011-0.26-0.013-0.367c-0.003-0.107-0.006-0.198-0.006-0.272
			c-0.001-0.148-0.002-0.227-0.002-0.227s-0.007,0.078-0.021,0.226c-0.007,0.073-0.013,0.164-0.02,0.271
			c-0.004,0.054-0.007,0.112-0.011,0.173c-0.003,0.062-0.005,0.127-0.008,0.196c-0.013,0.276-0.02,0.612-0.018,0.997
			c0.001,0.385,0.008,0.819,0.026,1.293c0.016,0.473,0.039,0.985,0.07,1.526c0.032,0.542,0.066,1.112,0.11,1.702
			c0.042,0.589,0.085,1.197,0.129,1.816c0.044,0.618,0.089,0.13,0.121,0.756c0.016,0.313,0.031,0.626,0.036,0.936
			c0.004,0.309,0.006,0.619-0.021,0.912l-0.012,0.109c-0.004,0.036-0.012,0.068-0.017,0.102l-0.009,0.051l-0.014,0.062
			c-0.007,0.038-0.015,0.074-0.021,0.114c-0.013,0.083-0.025,0.168-0.031,0.246l-0.011,0.119l-0.006,0.118
			c-0.017,0.313-0.011,0.619,0.004,0.917c0.027,0.598,0.095,1.169,0.167,1.709c0.035,0.269,0.073,0.531,0.113,0.784
			c0.042,0.252,0.083,0.495,0.125,0.728c0.082,0.467,0.168,0.893,0.248,1.269c0.078,0.377,0.153,0.703,0.215,0.972
			c0.063,0.269,0.116,0.479,0.152,0.623s0.056,0.22,0.056,0.22s-0.046-0.312-0.128-0.858
			C183.401,141.384,183.354,141.053,183.3,140.673"/>
	</g>
</g>
<g id="Layer_2">
	<g>
		<polygon fill="#1E4077" points="132.356,179.376 129.33,160.632 130.535,160.632 133.348,177.716 136.078,160.712 
			137.391,160.712 140.015,177.663 142.72,160.632 143.816,160.632 140.818,179.376 139.211,179.376 136.694,164.034 
			134.07,179.376 		"/>
		<path fill="#1E4077" d="M148.851,179.377h-1.125l4.098-18.771h1.794l4.177,18.771h-1.23l-0.938-4.151h-5.837L148.851,179.377z
			 M155.438,174.155l-2.759-12.13l-2.704,12.13H155.438z"/>
		<path fill="#1E4077" d="M169.229,161.623c0.589,0.661,0.883,1.66,0.883,2.999v1.071c0,1.071-0.183,1.906-0.549,2.504
			c-0.366,0.598-1.004,0.995-1.914,1.192c1.874,0.374,2.811,1.713,2.811,4.016v1.633c0,1.393-0.334,2.464-1.004,3.214
			c-0.669,0.749-1.7,1.124-3.092,1.124h-4.017v-18.744h3.936C167.657,160.632,168.64,160.963,169.229,161.623 M168.13,168.277
			c0.499-0.419,0.75-1.2,0.75-2.343v-1.205c0-1.017-0.196-1.767-0.589-2.249s-1.071-0.723-2.036-0.723h-2.677v7.15h2.088
			C166.81,168.907,167.63,168.697,168.13,168.277 M168.545,177.435c0.455-0.544,0.684-1.352,0.684-2.423v-1.687
			c0-1.196-0.269-2.044-0.804-2.544s-1.374-0.75-2.517-0.75h-2.33v8.221h2.785C167.362,178.252,168.091,177.98,168.545,177.435"/>
		<path fill="#1E4077" d="M182.027,161.623c0.589,0.661,0.883,1.66,0.883,2.999v1.071c0,1.071-0.183,1.906-0.549,2.504
			c-0.366,0.598-1.004,0.995-1.914,1.192c1.874,0.374,2.812,1.713,2.812,4.016v1.633c0,1.393-0.334,2.464-1.004,3.214
			c-0.669,0.749-1.7,1.124-3.093,1.124h-4.017v-18.744h3.936C180.456,160.632,181.438,160.963,182.027,161.623 M180.93,168.277
			c0.5-0.419,0.75-1.2,0.75-2.343v-1.205c0-1.017-0.197-1.767-0.589-2.249c-0.394-0.482-1.072-0.723-2.035-0.723h-2.678v7.15h2.088
			C179.608,168.907,180.43,168.697,180.93,168.277 M181.345,177.435c0.455-0.544,0.683-1.352,0.683-2.423v-1.687
			c0-1.196-0.268-2.044-0.804-2.544c-0.535-0.5-1.374-0.75-2.518-0.75h-2.328v8.221h2.784
			C180.161,178.252,180.89,177.98,181.345,177.435"/>
		<path fill="#1E4077" d="M188.802,179.377h-1.125l4.097-18.771h1.794l4.178,18.771h-1.231l-0.938-4.151h-5.837L188.802,179.377z
			 M195.389,174.155l-2.758-12.13l-2.705,12.13H195.389z"/>
		<path fill="#1E4077" d="M202.323,178.252c0.357,0,0.616-0.009,0.777-0.027c0.91-0.071,1.579-0.37,2.008-0.897
			c0.429-0.526,0.643-1.352,0.643-2.477v-14.218h1.231v14.138c0,1.571-0.32,2.718-0.964,3.441c-0.642,0.723-1.571,1.111-2.785,1.165
			c-0.125,0.017-0.33,0.026-0.614,0.026c-0.269,0-0.475-0.009-0.616-0.026v-1.125H202.323z"/>
		<path fill="#1E4077" d="M212.606,179.377h-1.125l4.097-18.771h1.794l4.177,18.771h-1.23l-0.938-4.151h-5.837L212.606,179.377z
			 M219.193,174.155l-2.759-12.13l-2.704,12.13H219.193z"/>
		<path fill="#1E4077" d="M233.116,161.771c0.66,0.866,0.991,2.013,0.991,3.441v1.553h-1.178v-1.633
			c0-1.072-0.229-1.928-0.683-2.571c-0.455-0.643-1.175-0.964-2.156-0.964c-0.982,0-1.7,0.321-2.155,0.964
			c-0.456,0.643-0.683,1.499-0.683,2.571v9.746c0,1.071,0.227,1.924,0.683,2.558c0.455,0.633,1.173,0.95,2.155,0.95
			c0.981,0,1.701-0.317,2.156-0.95c0.454-0.634,0.683-1.487,0.683-2.558v-2.222h1.178v2.142c0,1.428-0.331,2.575-0.991,3.441
			c-0.66,0.866-1.678,1.298-3.053,1.298c-1.374,0-2.392-0.432-3.052-1.298c-0.661-0.866-0.991-2.013-0.991-3.441v-9.586
			c0-1.428,0.33-2.575,0.991-3.441c0.66-0.866,1.678-1.299,3.052-1.299C231.438,160.472,232.456,160.905,233.116,161.771"/>
		<polygon fill="#1E4077" points="240.024,172.602 240.024,179.377 238.793,179.377 238.793,160.633 240.024,160.633 
			240.024,170.54 246.129,160.633 247.414,160.633 242.06,169.362 247.765,179.377 246.477,179.377 241.31,170.567 		"/>
	</g>
</g>
</svg>
